<?xml version="1.0" encoding="UTF-8" standalone="no"?>
<svg viewBox="0 0 598 762" version="1.1" xmlns="http://www.w3.org/2000/svg" xmlns:xlink="http://www.w3.org/1999/xlink" style="background: #FFFFFF;">
    <!-- Generator: Sketch 49.2 (51160) - http://www.bohemiancoding.com/sketch -->
    <title>figure_4</title>
    <desc>Created with Sketch.</desc>
    <defs>
        <path d="M391.71471,11.378573 C415.736463,12.3115064 427.74734,13.2957333 427.74734,14.3312537 C427.74734,15.8845344 391.71471,16.1229481 391.71471,18.3612152 C391.71471,20.5994822 427.74734,20.7839336 427.74734,22.2965448 C427.74734,23.3049524 415.93196,24.5756784 392.301199,26.1087229 C415.93196,27.6789522 427.74734,29.0255205 427.74734,30.1484277 C427.74734,31.8327886 392.301199,31.5947691 392.301199,33.6905558 C392.301199,35.7863425 427.74734,35.1424196 427.74734,37.1040097 C427.74734,39.0655998 392.301199,39.4593537 392.301199,41.1188633 C392.301199,42.778373 427.74734,42.687804 427.74734,44.8636669 C427.74734,47.0395298 392.301199,46.7777155 392.301199,48.7073232 C392.301199,50.6369309 427.74734,50.2701892 427.74734,52.5819054 C427.74734,54.8936217 392.301199,54.7710223 392.301199,56.7265377 C392.301199,59.4560547 427.74734,58.2548828 427.74734,60.9694703 C427.74734,63.6840578 392.301199,61.9170268 392.301199,64.9988204 C392.301199,68.0806141 427.74734,66.1054687 427.74734,68.0806141 C427.74734,70.0557594 392.301199,70.1228461 392.301199,72.7350071 C392.301199,75.347168 427.74734,73.4546567 427.74734,75.9477873 C427.74734,78.440918 392.428549,77.8878412 392.301199,80.6109128 C392.17385,83.3339844 428.253157,83.1323242 428.253157,85.6933594 C428.253157,88.2543945 392.301199,86.5503141 392.301199,88.503524 C392.301199,90.456734 428.253157,90.6941051 428.253157,93.0311068 C428.253157,95.3681084 392.301199,95.3612102 392.301199,97.8514162 C392.301199,100.341622 428.253157,100.336893 428.253157,102.991789 C428.253157,105.646684 392.301199,105.895309 392.301199,108.470828 C392.301199,111.046347 428.253157,111.283935 428.253157,114.166016 C428.253157,117.048096 392.301199,117.270996 392.301199,119.998035 C392.301199,122.725074 428.253157,124.357101 428.253157,127.355309 C428.253157,130.353518 392.301199,128.897573 392.301199,131.992617 C392.301199,135.087661 428.253157,136.042558 428.253157,139.73336 C428.253157,143.424162 392.301199,142.877689 392.301199,146.756523 C392.301199,150.635357 428.253157,151.419896 428.253157,155.247117 C428.253157,159.074338 392.301199,158.178899 392.301199,162.067156 C392.301199,165.955414 428.253157,166.759803 428.253157,170.798082 C428.253157,174.836362 392.301199,174.320469 392.301199,178.221799 C392.301199,182.12313 428.253157,182.756638 428.253157,186.402581 C428.253157,190.048524 392.301199,189.320299 392.301199,192.80726 C392.301199,196.29422 428.253157,196.762182 428.253157,200.349434 C428.253157,203.936687 392.301199,203.243113 392.301199,207.156944 C392.301199,211.070776 428.253157,211.861134 428.253157,216.002531 C428.253157,220.143928 392.301199,219.511389 392.301199,223.723911 C392.301199,227.936432 428.253157,228.165117 428.253157,232.850834 C428.253157,237.536552 392.301199,237.760528 392.301199,242.466015 C392.301199,247.171502 429.310547,247.517578 429.310547,251.382812 C429.310547,255.248047 392.301199,258.151855 392.301199,261.730469 C392.301199,265.309082 429.310547,268.773926 429.310547,272.184082 C429.310547,275.594238 392.301199,279.044922 392.301199,282.651367 C392.301199,286.257813 429.310547,290.885254 429.310547,293.857422 C429.310547,296.82959 392.301199,300.652832 392.301199,304.531738 C392.301199,308.410645 429.310547,312.787109 429.310547,316.34082 C429.310547,319.894531 392.301199,323.59668 392.301199,327.657715 C392.301199,331.71875 429.310547,336.061035 429.310547,339.133789 C429.310547,342.206543 392.301199,347.748535 392.301199,350.704102 C392.301199,353.659668 429.310547,361.509277 429.310547,364.847656 C429.310547,368.186035 392.301199,371.05127 392.301199,375.710449 C392.301199,380.369629 429.310547,385.463867 429.310547,388.807617 C429.310547,392.151367 392.301199,395.578125 392.301199,400.659668 C392.301199,405.741211 429.310547,410.418457 429.310547,414.044922 C429.310547,417.671387 392.301199,424.776855 392.301199,427.379883 C392.301199,429.98291 429.310547,438.611816 429.310547,442.346191 C429.310547,446.080566 392.301199,455.743164 392.301199,458.308594 C392.301199,460.874023 429.310547,471.178223 429.310547,473.841309 C429.310547,476.504395 392.301199,488.554199 392.301199,492.043945 C392.301199,495.533691 429.310547,506.201172 429.310547,508.553223 C429.310547,510.905273 392.301199,525.92334 392.301199,528.07666 C392.301199,529.512207 404.637649,536.088867 429.310547,547.806641" id="path-1"></path>
        <filter x="-19.3%" y="-1.4%" width="138.6%" height="102.7%" filterUnits="objectBoundingBox" id="filter-2">
            <feMorphology radius="1.75" operator="dilate" in="SourceAlpha" result="shadowSpreadOuter1"></feMorphology>
            <feOffset dx="0" dy="0" in="shadowSpreadOuter1" result="shadowOffsetOuter1"></feOffset>
            <feMorphology radius="1.75" operator="erode" in="SourceAlpha" result="shadowInner"></feMorphology>
            <feOffset dx="0" dy="0" in="shadowInner" result="shadowInner"></feOffset>
            <feComposite in="shadowOffsetOuter1" in2="shadowInner" operator="out" result="shadowOffsetOuter1"></feComposite>
            <feGaussianBlur stdDeviation="1.5" in="shadowOffsetOuter1" result="shadowBlurOuter1"></feGaussianBlur>
            <feColorMatrix values="0 0 0 0 0.183910287   0 0 0 0 0.274438497   0 0 0 0 0.275669643  0 0 0 1 0" type="matrix" in="shadowBlurOuter1"></feColorMatrix>
        </filter>
        <linearGradient x1="50%" y1="0%" x2="50%" y2="100%" id="linearGradient-3">
            <stop stop-color="#000000" offset="0%"></stop>
            <stop stop-color="#131313" offset="70.8702132%"></stop>
            <stop stop-color="#FFFFFF" offset="100%"></stop>
        </linearGradient>
        <linearGradient x1="50%" y1="1.43153902%" x2="50%" y2="99.2052023%" id="linearGradient-4">
            <stop stop-color="#FFFFFF" offset="0%"></stop>
            <stop stop-color="#131313" offset="26.648302%"></stop>
            <stop stop-color="#000000" offset="72.9836525%"></stop>
            <stop stop-color="#FFFFFF" offset="100%"></stop>
        </linearGradient>
        <linearGradient x1="50%" y1="1.43153902%" x2="50%" y2="99.2052023%" id="linearGradient-5">
            <stop stop-color="#FFFFFF" offset="0%"></stop>
            <stop stop-color="#131313" offset="33.5102059%"></stop>
            <stop stop-color="#000000" offset="71.1727782%"></stop>
            <stop stop-color="#FFFFFF" offset="100%"></stop>
        </linearGradient>
        <linearGradient x1="50%" y1="2.99859337%" x2="50%" y2="99.2052023%" id="linearGradient-6">
            <stop stop-color="#FFFFFF" offset="0%"></stop>
            <stop stop-color="#131313" offset="18.2267684%"></stop>
            <stop stop-color="#000000" offset="79.3639929%"></stop>
            <stop stop-color="#FFFFFF" offset="100%"></stop>
        </linearGradient>
        <linearGradient x1="100%" y1="50%" x2="11.7841317%" y2="50%" id="linearGradient-7">
            <stop stop-color="#FFFFFF" offset="0%"></stop>
            <stop stop-color="#7C7C7C" offset="51.1990049%"></stop>
            <stop stop-color="#7300FF" offset="100%"></stop>
        </linearGradient>
        <polygon id="path-8" points="17.2047412 9.46260766 0 4.72451574 17.2047412 0"></polygon>
        <filter x="-43.6%" y="-79.3%" width="187.2%" height="258.5%" filterUnits="objectBoundingBox" id="filter-9">
            <feMorphology radius="0.5" operator="dilate" in="SourceAlpha" result="shadowSpreadOuter1"></feMorphology>
            <feOffset dx="0" dy="0" in="shadowSpreadOuter1" result="shadowOffsetOuter1"></feOffset>
            <feGaussianBlur stdDeviation="2" in="shadowOffsetOuter1" result="shadowBlurOuter1"></feGaussianBlur>
            <feColorMatrix values="0 0 0 0 0.368872643   0 0 0 0 0   0 0 0 0 0.847432554  0 0 0 1 0" type="matrix" in="shadowBlurOuter1"></feColorMatrix>
        </filter>
        <linearGradient x1="100%" y1="50%" x2="11.7841317%" y2="50%" id="linearGradient-10">
            <stop stop-color="#FFFFFF" offset="0%"></stop>
            <stop stop-color="#191919" offset="51.1990049%"></stop>
            <stop stop-color="#D71E1A" offset="100%"></stop>
        </linearGradient>
        <polygon id="path-11" points="17.2047412 9.46260766 0 4.72451574 17.2047412 0"></polygon>
        <filter x="-43.6%" y="-79.3%" width="187.2%" height="258.5%" filterUnits="objectBoundingBox" id="filter-12">
            <feMorphology radius="0.5" operator="dilate" in="SourceAlpha" result="shadowSpreadOuter1"></feMorphology>
            <feOffset dx="0" dy="0" in="shadowSpreadOuter1" result="shadowOffsetOuter1"></feOffset>
            <feGaussianBlur stdDeviation="2" in="shadowOffsetOuter1" result="shadowBlurOuter1"></feGaussianBlur>
            <feColorMatrix values="0 0 0 0 0.82526207   0 0 0 0 0.137414008   0 0 0 0 0.0460550413  0 0 0 1 0" type="matrix" in="shadowBlurOuter1"></feColorMatrix>
        </filter>
    </defs>
    <g id="figure_4" stroke="none" stroke-width="1" fill="none" fill-rule="evenodd">
        <g id="Group-4" transform="translate(48.000000, 127.000000)">
            <g id="WAVE-LINE-Copy" stroke-linecap="square">
                <use fill="black" fill-opacity="1" filter="url(#filter-2)" xlink:href="#path-1"></use>
                <use stroke="#3146FF" stroke-width="2.5" xlink:href="#path-1"></use>
            </g>
            <rect id="Rectangle" fill="url(#linearGradient-3)" x="140" y="22" width="5" height="102"></rect>
            <rect id="Rectangle-Copy" fill="url(#linearGradient-4)" x="184" y="36" width="5" height="137"></rect>
            <rect id="Rectangle-Copy-2" fill="url(#linearGradient-5)" x="216" y="278" width="5" height="72"></rect>
            <rect id="Rectangle-Copy-3" fill="url(#linearGradient-6)" x="256" y="347" width="4" height="137"></rect>
            <text id="Gamma-Rays" font-family="OpenSans-Regular, Open Sans" font-size="18" font-weight="normal" fill="#000000">
                <tspan x="100" y="19">Gamma Rays</tspan>
            </text>
            <text id="X-Rays" font-family="OpenSans-Regular, Open Sans" font-size="18" font-weight="normal" fill="#000000">
                <tspan x="193" y="98">X-Rays</tspan>
            </text>
            <text id="Ultraviolet" font-family="OpenSans-Regular, Open Sans" font-size="18" font-weight="normal" fill="#000000">
                <tspan x="195" y="161">Ultraviolet</tspan>
            </text>
            <text id="Visible" font-family="OpenSans-Regular, Open Sans" font-size="18" font-weight="normal" fill="#000000">
                <tspan x="158" y="218">Visible</tspan>
            </text>
            <text id="Infrared" font-family="OpenSans-Regular, Open Sans" font-size="18" font-weight="normal" fill="#000000">
                <tspan x="175" y="266">Infrared</tspan>
            </text>
            <text id="Microwaves" font-family="OpenSans-Regular, Open Sans" font-size="18" font-weight="normal" fill="#000000">
                <tspan x="98" y="311">Microwaves</tspan>
            </text>
            <text id="T.V.-AM/FM-Radio-Wav" font-family="OpenSans-Regular, Open Sans" font-size="18" font-weight="normal" fill="#000000">
                <tspan x="171.90332" y="400">T.V.</tspan>
                <tspan x="155.604004" y="424">AM/FM</tspan>
                <tspan x="132.356934" y="448">Radio Waves</tspan>
            </text>
            <text id="Frecuency-(Hz)" transform="translate(12.000000, 271.000000) rotate(-90.000000) translate(-12.000000, -271.000000) " font-family="OpenSans-Regular, Open Sans" font-size="18" font-weight="normal" fill="#000000">
                <tspan x="-49" y="278">Frecuency (Hz)</tspan>
            </text>
            <text id="Wavelenght-(meters)" transform="translate(368.000000, 259.500000) rotate(-90.000000) translate(-368.000000, -259.500000) " font-family="OpenSans-Regular, Open Sans" font-size="18" font-weight="normal" fill="#000000">
                <tspan x="281.5" y="266.5">Wavelenght (meters)</tspan>
            </text>
            <text id="Decreasing-Wavelengh" transform="translate(459.000000, 271.500000) rotate(-90.000000) translate(-459.000000, -271.500000) " font-family="OpenSans-Regular, Open Sans" font-size="18" font-weight="normal" fill="#000000">
                <tspan x="268.5" y="278.5">Decreasing Wavelenght, Increasing Frecuency</tspan>
            </text>
            <text id="1024" font-family="OpenSans-Regular, Open Sans" font-size="18" font-weight="normal" fill="#000000">
                <tspan x="30" y="19">10</tspan>
                <tspan x="50.5839844" y="19" font-size="13">24</tspan>
            </text>
            <text id="1021" font-family="OpenSans-Regular, Open Sans" font-size="18" font-weight="normal" fill="#000000">
                <tspan x="30" y="85">10</tspan>
                <tspan x="50.5839844" y="85" font-size="13">21</tspan>
            </text>
            <text id="1018" font-family="OpenSans-Regular, Open Sans" font-size="18" font-weight="normal" fill="#000000">
                <tspan x="30" y="150">10</tspan>
                <tspan x="50.5839844" y="150" font-size="13">18</tspan>
            </text>
            <text id="1015" font-family="OpenSans-Regular, Open Sans" font-size="18" font-weight="normal" fill="#000000">
                <tspan x="30" y="217">10</tspan>
                <tspan x="50.5839844" y="217" font-size="13">15</tspan>
            </text>
            <text id="1012" font-family="OpenSans-Regular, Open Sans" font-size="18" font-weight="normal" fill="#000000">
                <tspan x="30" y="280">10</tspan>
                <tspan x="50.5839844" y="280" font-size="13">12</tspan>
            </text>
            <text id="109" font-family="OpenSans-Regular, Open Sans" font-size="18" font-weight="normal" fill="#000000">
                <tspan x="30" y="350">10</tspan>
                <tspan x="50.5839844" y="350" font-size="13">9</tspan>
            </text>
            <text id="106" font-family="OpenSans-Regular, Open Sans" font-size="18" font-weight="normal" fill="#000000">
                <tspan x="30" y="410">10</tspan>
                <tspan x="50.5839844" y="410" font-size="13">6</tspan>
            </text>
            <text id="103" font-family="OpenSans-Regular, Open Sans" font-size="18" font-weight="normal" fill="#000000">
                <tspan x="30" y="480">10</tspan>
                <tspan x="50.5839844" y="480" font-size="13">3</tspan>
            </text>
            <text id="100" font-family="OpenSans-Regular, Open Sans" font-size="18" font-weight="normal" fill="#000000">
                <tspan x="30" y="545">10</tspan>
                <tspan x="50.5839844" y="545" font-size="13">0</tspan>
            </text>
            <text id="10-15" font-family="OpenSans-Regular, Open Sans" font-size="18" font-weight="normal" fill="#000000">
                <tspan x="312" y="24">10</tspan>
                <tspan x="332.583984" y="24" font-size="13">-15</tspan>
            </text>
            <text id="10-12" font-family="OpenSans-Regular, Open Sans" font-size="18" font-weight="normal" fill="#000000">
                <tspan x="311" y="88">10</tspan>
                <tspan x="331.583984" y="88" font-size="13">-12</tspan>
            </text>
            <text id="10-9" font-family="OpenSans-Regular, Open Sans" font-size="18" font-weight="normal" fill="#000000">
                <tspan x="312" y="153">10</tspan>
                <tspan x="332.583984" y="153" font-size="13">-9</tspan>
            </text>
            <text id="10-6" font-family="OpenSans-Regular, Open Sans" font-size="18" font-weight="normal" fill="#000000">
                <tspan x="312" y="222">10</tspan>
                <tspan x="332.583984" y="222" font-size="13">-6</tspan>
            </text>
            <text id="10-3" font-family="OpenSans-Regular, Open Sans" font-size="18" font-weight="normal" fill="#000000">
                <tspan x="312" y="284">10</tspan>
                <tspan x="332.583984" y="284" font-size="13">-3</tspan>
            </text>
            <text id="100" font-family="OpenSans-Regular, Open Sans" font-size="18" font-weight="normal" fill="#000000">
                <tspan x="312" y="350">10</tspan>
                <tspan x="332.583984" y="350" font-size="13">0</tspan>
            </text>
            <text id="10-3" font-family="OpenSans-Regular, Open Sans" font-size="18" font-weight="normal" fill="#000000">
                <tspan x="312" y="417">10</tspan>
                <tspan x="332.583984" y="417" font-size="13">-3</tspan>
            </text>
            <text id="106" font-family="OpenSans-Regular, Open Sans" font-size="18" font-weight="normal" fill="#000000">
                <tspan x="312" y="485">10</tspan>
                <tspan x="332.583984" y="485" font-size="13">6</tspan>
            </text>
            <text id="109" font-family="OpenSans-Regular, Open Sans" font-size="18" font-weight="normal" fill="#000000">
                <tspan x="312" y="551">10</tspan>
                <tspan x="332.583984" y="551" font-size="13">9</tspan>
            </text>
            <g id="Group" transform="translate(66.000000, 13.000000)" stroke="#000000" stroke-linecap="square">
                <path d="M1.5,1.5 L1.5,534.5" id="Line-2" stroke-width="2"></path>
                <path d="M1.5,1.5 L18.5,1.5" id="Line-3" stroke-width="2"></path>
                <path d="M1.5,65.5 L18.5,65.5" id="Line-3-Copy-3" stroke-width="2"></path>
                <path d="M2.5,24.5 L8.5,24.5" id="Line-3-Copy" stroke-width="3"></path>
                <path d="M2.5,44.5 L8.5,44.5" id="Line-3-Copy-2" stroke-width="3"></path>
                <path d="M2.5,86.5 L8.5,86.5" id="Line-3-Copy-5" stroke-width="3"></path>
                <path d="M2.5,106.5 L8.5,106.5" id="Line-3-Copy-4" stroke-width="3"></path>
                <path d="M1.5,129.5 L18.5,129.5" id="Line-3-Copy-8" stroke-width="2"></path>
                <path d="M1.5,197.5 L18.5,197.5" id="Line-3-Copy-9" stroke-width="2"></path>
                <path d="M2.5,150.5 L8.5,150.5" id="Line-3-Copy-7" stroke-width="3"></path>
                <path d="M2.5,174.5 L8.5,174.5" id="Line-3-Copy-6" stroke-width="3"></path>
                <path d="M1.5,261.5 L18.5,261.5" id="Line-3-Copy-12" stroke-width="2"></path>
                <path d="M2.5,220.5 L8.5,220.5" id="Line-3-Copy-11" stroke-width="3"></path>
                <path d="M2.5,239.5 L8.5,239.5" id="Line-3-Copy-10" stroke-width="3"></path>
                <path d="M1.5,329.5 L18.5,329.5" id="Line-3-Copy-15" stroke-width="2"></path>
                <path d="M2.5,283.5 L8.5,283.5" id="Line-3-Copy-14" stroke-width="3"></path>
                <path d="M2.5,306.5 L8.5,306.5" id="Line-3-Copy-13" stroke-width="3"></path>
                <path d="M1.5,392.5 L18.5,392.5" id="Line-3-Copy-18" stroke-width="2"></path>
                <path d="M2.5,351.5 L8.5,351.5" id="Line-3-Copy-17" stroke-width="3"></path>
                <path d="M2.5,370.5 L8.5,370.5" id="Line-3-Copy-16" stroke-width="3"></path>
                <path d="M1.5,460.5 L18.5,460.5" id="Line-3-Copy-21" stroke-width="2"></path>
                <path d="M2.5,417.5 L8.5,417.5" id="Line-3-Copy-20" stroke-width="3"></path>
                <path d="M2.5,439.5 L8.5,439.5" id="Line-3-Copy-19" stroke-width="3"></path>
                <path d="M1.5,524.5 L18.5,524.5" id="Line-3-Copy-24" stroke-width="2"></path>
                <path d="M2.5,483.5 L8.5,483.5" id="Line-3-Copy-23" stroke-width="3"></path>
                <path d="M2.5,503.5 L8.5,503.5" id="Line-3-Copy-22" stroke-width="3"></path>
            </g>
            <g id="Group-2" transform="translate(293.000000, 18.000000)" stroke="#000000" stroke-linecap="square">
                <path d="M14.5,0 L14.5,529.5" id="Line-2" stroke-width="2" transform="translate(14.500000, 265.000000) scale(-1, 1) translate(-14.500000, -265.000000) "></path>
                <path d="M14.5,5.5 L0.604492188,5.5 L14.5,5.5 Z" id="Line-3" stroke-width="2"></path>
                <path d="M14.5,69.5 L0.604492188,69.5 L14.5,69.5 Z" id="Line-3-Copy-3" stroke-width="2"></path>
                <path d="M7.5,27.5 L13.5,27.5" id="Line-3-Copy" stroke-width="3" transform="translate(10.500000, 27.500000) scale(-1, 1) translate(-10.500000, -27.500000) "></path>
                <path d="M7.5,47.5 L13.5,47.5" id="Line-3-Copy-2" stroke-width="3" transform="translate(10.500000, 47.500000) scale(-1, 1) translate(-10.500000, -47.500000) "></path>
                <path d="M7.5,91.5 L13.5,91.5" id="Line-3-Copy-5" stroke-width="3" transform="translate(10.500000, 91.500000) scale(-1, 1) translate(-10.500000, -91.500000) "></path>
                <path d="M7.5,111.5 L13.5,111.5" id="Line-3-Copy-4" stroke-width="3" transform="translate(10.500000, 111.500000) scale(-1, 1) translate(-10.500000, -111.500000) "></path>
                <path d="M14.5,131.5 L0.604492188,131.5 L14.5,131.5 Z" id="Line-3-Copy-8" stroke-width="2"></path>
                <path d="M14.5,200.5 L0.604492188,200.5 L14.5,200.5 Z" id="Line-3-Copy-9" stroke-width="2"></path>
                <path d="M7.5,155.5 L13.5,155.5" id="Line-3-Copy-7" stroke-width="3" transform="translate(10.500000, 155.500000) scale(-1, 1) translate(-10.500000, -155.500000) "></path>
                <path d="M7.5,175.5 L13.5,175.5" id="Line-3-Copy-6" stroke-width="3" transform="translate(10.500000, 175.500000) scale(-1, 1) translate(-10.500000, -175.500000) "></path>
                <path d="M14.5,263.5 L0.604492188,263.5 L14.5,263.5 Z" id="Line-3-Copy-12" stroke-width="2"></path>
                <path d="M7.5,222.5 L13.5,222.5" id="Line-3-Copy-11" stroke-width="3" transform="translate(10.500000, 222.500000) scale(-1, 1) translate(-10.500000, -222.500000) "></path>
                <path d="M7.5,241.5 L13.5,241.5" id="Line-3-Copy-10" stroke-width="3" transform="translate(10.500000, 241.500000) scale(-1, 1) translate(-10.500000, -241.500000) "></path>
                <path d="M14.5,332.5 L0.604492188,332.5 L14.5,332.5 Z" id="Line-3-Copy-15" stroke-width="2"></path>
                <path d="M7.5,286.5 L13.5,286.5" id="Line-3-Copy-14" stroke-width="3" transform="translate(10.500000, 286.500000) scale(-1, 1) translate(-10.500000, -286.500000) "></path>
                <path d="M7.5,309.5 L13.5,309.5" id="Line-3-Copy-13" stroke-width="3" transform="translate(10.500000, 309.500000) scale(-1, 1) translate(-10.500000, -309.500000) "></path>
                <path d="M14.5,395.5 L0.604492188,395.5 L14.5,395.5 Z" id="Line-3-Copy-18" stroke-width="2"></path>
                <path d="M7.5,354.5 L13.5,354.5" id="Line-3-Copy-17" stroke-width="3" transform="translate(10.500000, 354.500000) scale(-1, 1) translate(-10.500000, -354.500000) "></path>
                <path d="M7.5,376.5 L13.5,376.5" id="Line-3-Copy-16" stroke-width="3" transform="translate(10.500000, 376.500000) scale(-1, 1) translate(-10.500000, -376.500000) "></path>
                <path d="M14.5,463.5 L0.604492188,463.5 L14.5,463.5 Z" id="Line-3-Copy-21" stroke-width="2"></path>
                <path d="M7.5,418.5 L13.5,418.5" id="Line-3-Copy-20" stroke-width="3" transform="translate(10.500000, 418.500000) scale(-1, 1) translate(-10.500000, -418.500000) "></path>
                <path d="M7.5,440.5 L13.5,440.5" id="Line-3-Copy-19" stroke-width="3" transform="translate(10.500000, 440.500000) scale(-1, 1) translate(-10.500000, -440.500000) "></path>
                <path d="M14.5,529.5 L0.604492188,529.5 L14.5,529.5 Z" id="Line-3-Copy-24" stroke-width="2"></path>
                <path d="M7.5,487.5 L13.5,487.5" id="Line-3-Copy-23" stroke-width="3" transform="translate(10.500000, 487.500000) scale(-1, 1) translate(-10.500000, -487.500000) "></path>
                <path d="M7.5,507.5 L13.5,507.5" id="Line-3-Copy-22" stroke-width="3" transform="translate(10.500000, 507.500000) scale(-1, 1) translate(-10.500000, -507.500000) "></path>
            </g>
            <g id="Group-3" transform="translate(488.500000, 278.500000) rotate(90.000000) translate(-488.500000, -278.500000) translate(220.000000, 273.000000)">
                <path d="M536.577552,5.49832984 L14.5,5.49832984" id="Line-38-Copy" stroke="#FF0000" stroke-width="2" stroke-linecap="square"></path>
                <polygon id="Shape-Copy" fill="#FF0000" fill-rule="nonzero" points="17.2047412 10.4609375 0 5.72284557 17.2047412 0.998329835"></polygon>
            </g>
            <g id="Group-3-Copy" transform="translate(365.500000, 280.000000) scale(1, -1) rotate(90.000000) translate(-365.500000, -280.000000) translate(118.500000, 274.500000)">
                <path d="M158.984375,5.49832984 L14,5.49832984" id="Line-38-Copy" stroke="#000000" stroke-width="2" stroke-linecap="square"></path>
                <path d="M494,5.49832984 L370.324219,5.49832984" id="Line-38-Copy-2" stroke="#000000" stroke-width="2" stroke-linecap="square"></path>
                <polygon id="Shape-Copy" fill="#000000" fill-rule="nonzero" points="17.2047412 10.4609375 0 5.72284557 17.2047412 0.998329835"></polygon>
            </g>
            <g id="Group-3-Copy-2" transform="translate(13.500000, 272.500000) rotate(90.000000) translate(-13.500000, -272.500000) translate(-226.000000, 267.000000)">
                <path d="M158,5.49832984 L14,5.49832984" id="Line-38-Copy" stroke="#000000" stroke-width="2" stroke-linecap="square"></path>
                <path d="M478,5.49832984 L314.324219,5.49832984" id="Line-38-Copy-2" stroke="#000000" stroke-width="2" stroke-linecap="square"></path>
                <polygon id="Shape-Copy" fill="#000000" fill-rule="nonzero" points="17.2047412 10.4609375 0 5.72284557 17.2047412 0.998329835"></polygon>
            </g>
            <g id="Group-3-Copy-3" transform="translate(140.500000, 241.000000) rotate(90.000000) translate(-140.500000, -241.000000) translate(117.500000, 235.500000)">
                <path d="M45,5.49832984 L14,5.49832984" id="Line-38-Copy" stroke="#000000" stroke-width="2" stroke-linecap="square"></path>
                <polygon id="Shape-Copy" fill="#000000" fill-rule="nonzero" points="17.2047412 10.4609375 0 5.72284557 17.2047412 0.998329835"></polygon>
            </g>
            <g id="Group-3-Copy-4" transform="translate(140.500000, 190.000000) scale(1, -1) rotate(90.000000) translate(-140.500000, -190.000000) translate(117.500000, 184.500000)">
                <path d="M45,5.49832984 L14,5.49832984" id="Line-38-Copy" stroke="#000000" stroke-width="2" stroke-linecap="square"></path>
                <polygon id="Shape-Copy" fill="#000000" fill-rule="nonzero" points="17.2047412 10.4609375 0 5.72284557 17.2047412 0.998329835"></polygon>
            </g>
            <g id="Group-3-Copy-5" transform="translate(257.000000, 187.000000) scale(1, -1) rotate(90.000000) translate(-257.000000, -187.000000) translate(233.000000, 182.000000)" fill-rule="nonzero">
                <polygon id="Line-38-Copy" fill="url(#linearGradient-7)" points="47.5 3 47.5 7 12.5 7 12.5 3"></polygon>
                <g id="Shape-Copy">
                    <use fill="black" fill-opacity="1" filter="url(#filter-9)" xlink:href="#path-8"></use>
                    <use fill="#6107CF" fill-rule="evenodd" xlink:href="#path-8"></use>
                </g>
            </g>
            <g id="Group-3-Copy-6" transform="translate(257.500000, 272.000000) rotate(90.000000) translate(-257.500000, -272.000000) translate(206.000000, 267.000000)" fill-rule="nonzero">
                <polygon id="Line-38-Copy" fill="url(#linearGradient-10)" points="102.5 3 102.5 7 12.5 7 12.5 3"></polygon>
                <g id="Shape-Copy">
                    <use fill="black" fill-opacity="1" filter="url(#filter-12)" xlink:href="#path-11"></use>
                    <use fill="#D71E1A" fill-rule="evenodd" xlink:href="#path-11"></use>
                </g>
            </g>
            <path d="M306.5,213.5 L221.5,213.5" id="Line" stroke="#095235" stroke-linecap="square"></path>
            <path d="M306.5,214.5 L221.5,214.5" id="Line-Copy" stroke="#70B294" stroke-linecap="square"></path>
            <path d="M306.5,215.5 L221.5,215.5" id="Line-Copy-2" stroke="#82444F" stroke-linecap="square"></path>
            <path d="M153.5,213.5 L68.5,213.5" id="Line-Copy-5" stroke="#095235" stroke-linecap="square"></path>
            <path d="M153.5,214.5 L68.5,214.5" id="Line-Copy-4" stroke="#70B294" stroke-linecap="square"></path>
            <path d="M153.5,215.5 L68.5,215.5" id="Line-Copy-3" stroke="#82444F" stroke-linecap="square"></path>
        </g>
        <text id="Electromagnetic-Spec" font-family="OpenSans-Regular, Open Sans" font-size="24" font-weight="normal" fill="#D9551A">
            <tspan x="145" y="75">Electromagnetic Spectrum </tspan>
        </text>
    </g>
</svg>