<?xml version="1.0" encoding="UTF-8" standalone="no"?>
<svg viewBox="0 0 948 771" version="1.1" xmlns="http://www.w3.org/2000/svg" xmlns:xlink="http://www.w3.org/1999/xlink">
    <!-- Generator: Sketch 49.2 (51160) - http://www.bohemiancoding.com/sketch -->
    <title>figure_5</title>
    <desc>Created with Sketch.</desc>
    <defs>
        <radialGradient cx="63.4299755%" cy="50.8828604%" fx="63.4299755%" fy="50.8828604%" r="71.9559948%" gradientTransform="translate(0.634300,0.508829),scale(1.000000,0.931818),rotate(90.000000),translate(-0.634300,-0.508829)" id="radialGradient-1">
            <stop stop-color="#FFFFFF" offset="0%"></stop>
            <stop stop-color="#B8B8B8" offset="100%"></stop>
        </radialGradient>
        <path d="M204.468908,21.2134322 C203.065808,18.8799691 202.667888,17.2653534 203.275148,16.3695849 C206.202964,12.0507686 209.557913,9 212.361503,9 C215.216443,9 216.527054,9.66522964 216.293336,10.9956889 C221.906755,21.217568 224.713465,26.3285075 224.713465,26.3285075 C224.713465,26.3285075 225.475644,29.219005 227,35 C221.421003,32.4135271 218.631504,31.1202906 218.631504,31.1202906 C218.631504,31.1202906 213.910639,27.8180045 204.468908,21.2134322 Z" id="path-2"></path>
        <path d="M270.517417,509.084359 C274.703409,508.234223 279.795244,507.809154 285.792921,507.809154 L364.236716,507.809154 C365.609894,451.980057 368.018627,398.642971 371.462917,347.797897 C371.716133,344.05988 376.540394,344.074863 376.882567,347.797897 C381.500146,398.039745 384.539291,450.763617 386,505.96951 C384.795633,505.96951 378.143389,513.017854 366.043266,527.114542 C331.615313,527.114542 325.765514,529.608831 285.792921,527.114542 C279.042582,526.693321 274.350679,525.997849 270.380858,524.851951 C268.784642,527.656044 265.898111,529 261.244801,529 C255.933254,529 251.851654,528.599801 249,527.799403 L249,505.968545 C252.536476,504.692389 256.618076,504.054311 261.244801,504.054311 C265.659208,504.054311 268.809282,505.704981 270.517417,509.084359 Z" id="path-3"></path>
        <path d="M371.468868,308.62069 L370,308.62069 L370,287.931034 L371.595056,287.931034 L371,285.723753 L371,278.093803 L372.747879,260 L375.808364,260 L378,278.093803 L378,285.723753 L377.241448,287.931034 L379,287.931034 L379,308.62069 L377.646339,308.62069 L377.005306,312.370828 C375.896539,317.456943 375.061438,320 374.5,320 C373.938562,320 373.21147,317.456943 372.318724,312.370828 L371.468868,308.62069 Z" id="path-4"></path>
        <path d="M369,157.67527 L379,150 L376.334817,227.695191 C374.919277,248.565064 373.977965,259 373.51088,259 C373.043796,259 372.51654,248.565064 371.929113,227.695191 L369,157.67527 Z" id="path-5"></path>
        <path d="M239.118552,46.3814079 C231.820424,38.8433053 228.470193,34.7481565 229.06786,34.0959615 C229.665527,33.4437664 234.395695,36.1160172 243.258365,42.1127139 C260.450454,52.8126536 275.504957,62.8653244 288.421877,72.2707262 C308.783427,90.1588335 369.712844,154.526916 368.993688,155.209519 C367.119863,156.988101 357.484832,155.209519 352.213822,155.209519 C346.609694,150.747421 297.568737,112.807778 270.767465,87.5755138 C265.950902,83.0409242 255.401265,69.3095555 239.118552,46.3814079 Z" id="path-6"></path>
        <polygon id="path-7" points="354 353 397.166667 353 395.008333 360 356.158333 360"></polygon>
    </defs>
    <g id="figure_5" stroke="none" stroke-width="1" fill="none" fill-rule="evenodd">
        <g id="font" transform="translate(91.000000, 67.000000)">
            <g id="Group-6-Copy" transform="translate(316.000000, 397.000000)" stroke="#434343" stroke-width="2">
                <circle id="Oval" fill="#757575" cx="19.5" cy="17.5" r="17.5"></circle>
                <path d="M0.272727273,18 L35.7272727,18" id="Line-2" stroke-linecap="square"></path>
                <path d="M20,35 L20,1" id="Line-2-Copy" fill="#525151" stroke-linecap="square"></path>
                <path d="M6,6 L31,30" id="Line-2-Copy-3" fill="#525151" stroke-linecap="square"></path>
                <path d="M6,30 L31,6" id="Line-2-Copy-2" fill="#525151" stroke-linecap="square"></path>
                <circle id="Oval-Copy" fill="#757575" cx="20" cy="17" r="8"></circle>
            </g>
            <path d="M165.962365,537.30912 L166.891824,541.312202 L67.3366545,541.312202 C64.9103857,540.938149 63.3917913,540.29529 62.780871,539.383626 C62.1699508,538.471961 61.9174991,536.471922 62.0235157,533.383507 L67.3366545,445.724176 C67.5105425,443.125696 67.9708591,441.49276 68.7176045,440.825368 C69.4643498,440.157977 71.1560097,439.867619 73.7925841,439.954293 L136.683594,439.954293 L136.683594,214.723466 L328.685681,168.601211 L328.30826,155.518692 L284.168401,117.154211 L282.398086,119.006851 L261.051052,98.9649407 L268.104492,91.3214834 L256.742188,80.2524752 L254.087245,82.5515216 L243.921127,72.3755311 L243.921127,66.6972596 L233.683714,55.8984454 L231.537571,57.9951364 C230.56126,58.9489508 228.978348,58.9489508 228.002037,57.9951364 C226.410544,56.4403144 226.410544,54.8938757 227.386854,53.9400613 L250.99648,29.7153608 C251.972791,28.7615464 253.555704,28.7615464 254.532014,29.7153608 C255.722847,30.8787538 255.573751,32.0004796 255.154306,33.0219524 C254.862366,33.7329135 254.43946,34.3953082 254.038799,34.7867373 C257.337871,39.212595 260.856406,42.5103537 264.594405,44.6800134 C266.537951,45.8081124 268.700959,45.8081124 271.083432,44.6800134 L282.398086,55.8984454 L280.036518,58.1676002 L290.530997,67.4353652 L296.082031,61.7055419 L318.102662,80.4206255 L317,82.5515216 L364.839418,125.023585 L365.977539,125.28317 L414.044847,125.28317 C418.143825,125.257125 420.354184,126.684014 420.675926,129.563838 C420.995019,132.419958 421.154565,134.896195 421.154565,136.992549 L421.154565,168.122597 L432.169197,166.041774 L434.413136,170.970201 L434.413136,184.444345 C439.4305,186.503115 442.461138,188.123965 443.505049,189.306896 C444.54896,190.489827 443.944906,191.618713 441.692885,192.693553 L454.672425,199.190578 L454.672425,203.008568 L473.116245,216.401698 L475.057473,223.022421 L481.34375,226.535317 L481.34375,234.642168 L473.116245,247.40387 L465.1903,247.40387 L459.555813,242.375844 L454.672425,241.405363 L437.57049,232.185344 L432.169197,232.185344 L421.154565,223.165234 L417.93001,225.581858 L411.429919,223.165234 L402.829983,229.094754 L394.663044,227.210544 L394.663044,238.947101 L392.698748,251.263229 L388.839172,253.969434 L388.839172,281.702004 L374.397004,287.369522 L357.542484,278.823429 L357.542484,253.969434 L355.155447,251.263229 L357.542484,238.947101 L352.180247,236.484245 L352.180247,225.581858 L341.067029,218.961136 L344.403779,210.544994 L215.175341,265.586332 L215.175341,321.330273 L281.675681,321.330273 L281.675681,305.37182 L267.085677,305.37182 L267.085677,287.369522 L317,287.369522 L317,282.202247 L333,282.202247 L333,287.369522 L462.915659,287.369522 L462.915659,305.37182 L447.199286,305.37182 L447.199286,315.918263 L445.1903,315.918263 L445.1903,323.363775 L406.794205,324.582429 L406.794205,329.675956 L421.154565,333.342261 L420.675926,329.675956 L429.886636,329.675956 L429.886636,343.984369 L431.826983,343.984369 L431.826983,358.06267 L428.292022,358.06267 L428.292022,367.251701 L471,367.251701 L471,376.647264 L420.955153,376.647264 C420.626647,379.034337 418.533346,380.874985 416,380.874985 C413.466654,380.874985 411.373353,379.034337 411.044847,376.647264 L402.829983,376.647264 L402.829983,369.016768 L352.180247,369.016768 C346.995935,369.016768 343.291529,370.298337 341.067029,372.861475 C338.842529,375.424614 337.445713,378.640459 336.876583,382.509011 L336.876583,450.104674 L324.685681,450.104674 L324.685681,486.014541 L334.056161,486.014541 L334.056161,484.2463 L331.133858,480.992796 L331.133858,472.785517 L419.381934,472.785517 L419.381934,480.992796 L417.601192,483.204731 L417.93001,486.014541 L441.692885,486.014541 C453.816218,501.1126 458.919688,518.210793 457.003296,537.30912 L456.169197,540.735831 L399.039856,541.096064 L399.039856,536.587083 L372.907102,536.587083 L369.200056,540.735831 L314.056161,540.735831 L314.056161,537.30912 L281.268251,537.30912 L281.268251,540.735831 L216.655369,540.735831 L216.655369,537.30912 L165.962365,537.30912 Z" id="Combined-Shape" stroke="#434343" stroke-width="2" fill="#757575" stroke-linecap="square"></path>
            <ellipse id="Oval" stroke="#6E6E6E" stroke-width="2" fill="#F2F2F2" cx="219" cy="25.5" rx="24" ry="25.5"></ellipse>
            <ellipse id="Oval" stroke="#9E9E9E" stroke-width="2" fill="url(#radialGradient-1)" cx="219.5" cy="25" rx="20.5" ry="22"></ellipse>
            <g id="Rectangle" transform="translate(215.000000, 22.000000) rotate(-6.000000) translate(-215.000000, -22.000000) ">
                <use fill="#FFED00" fill-rule="evenodd" xlink:href="#path-2"></use>
                <path stroke="#C6B907" stroke-width="2" d="M205.218467,20.5173815 C211.533635,24.934896 211.571044,24.9610643 215.664047,27.824155 C218.489011,29.8002414 218.609244,29.8843451 219.132284,30.2502164 C220.312107,30.7971929 220.542299,30.9039119 225.490666,33.1980191 C224.166367,28.1757249 224.09096,27.8897517 223.777827,26.7022198 C223.479939,26.1597751 223.382151,25.9817057 221.731905,22.9766544 C219.276034,18.5045823 219.276034,18.5045823 215.416808,11.4770405 L215.247595,11.1689076 L215.308417,10.8226712 C215.389364,10.3618745 214.676412,10 212.361503,10 C210.135647,10 207.048429,12.5857345 204.102874,16.9307176 C203.801899,17.3746863 204.091215,18.5987806 205.218467,20.5173815 Z"></path>
            </g>
            <path d="M215,508.839899 L215,526.664666 C217.114704,528.211314 220.106425,529 224,529 C227.712953,529 230.608084,528.282138 232.701159,526.874349 L233.629752,526.249783 L234.14634,527.242509 C234.781581,528.463249 235.539231,529 236.5,529 C237.184705,529 237.745042,528.734518 238.245527,528.159195 L239,527.291906 L239.754473,528.159195 C240.254958,528.734518 240.815295,529 241.5,529 C242.364423,529 243.053369,528.570436 243.64877,527.604679 L244.5,526.223961 L245.35123,527.604679 C245.946631,528.570436 246.635577,529 247.5,529 C248.530799,529 249.343848,528.372796 250,526.943733 L250,508.559167 C249.162241,506.787427 248.308969,506 247.5,506 C246.813195,506 246.099974,506.558904 245.369505,507.844824 L244.5,509.375504 L243.630495,507.844824 C242.900026,506.558904 242.186805,506 241.5,506 C240.951798,506 240.396257,506.348638 239.808945,507.156796 L239,508.269929 L238.191055,507.156796 C237.603743,506.348638 237.048202,506 236.5,506 C235.742129,506 234.947615,506.686228 234.150492,508.252599 L233.632891,509.2697 L232.692585,508.622994 C230.148366,506.87318 227.259889,506 224,506 C220.609512,506 217.619484,506.944491 215,508.839899 Z" id="Combined-Shape" stroke="#434343" stroke-width="2"></path>
            <g id="Combined-Shape">
                <use fill="#FFED00" fill-rule="evenodd" xlink:href="#path-3"></use>
                <path stroke="#C6B907" stroke-width="2" d="M250,506.680689 L250,527.025528 C252.708788,527.671942 256.462169,528 261.244801,528 C265.540712,528 268.104977,526.828625 269.511798,524.357243 L269.901448,523.672741 L270.658188,523.891176 C274.566168,525.019223 279.2019,525.701317 285.8552,526.116483 C304.862779,527.302556 316.292005,527.448896 330.808094,526.961083 C331.990008,526.921365 333.2164,526.87746 334.750118,526.820515 C335.463384,526.794032 338.160177,526.692657 338.78192,526.66952 C349.076087,526.286446 356.098439,526.119844 365.583753,526.114667 C376.394582,513.52866 382.410232,507.001572 384.983932,505.378057 C383.5175,450.417889 380.485078,397.921645 375.886764,347.889418 C375.655802,345.376423 372.629541,345.371997 372.46063,347.865483 C369.017334,398.695899 366.609246,452.018678 365.236414,507.833743 L365.212422,508.809154 L285.792921,508.809154 C279.857571,508.809154 274.830584,509.228809 270.716445,510.064353 L269.969005,510.216151 L269.624947,509.535466 C268.113047,506.54432 265.342399,505.054311 261.244801,505.054311 C257.01613,505.054311 253.268538,505.598056 250,506.680689 Z"></path>
            </g>
            <path d="M374.333333,314 L374.333333,347.055556" id="Line-37" stroke="#C6B907" stroke-width="2" stroke-linecap="square"></path>
            <ellipse id="Oval-4" stroke="#434343" stroke-width="2" fill="#DDDDDD" cx="374.428571" cy="334" rx="23.4285714" ry="4"></ellipse>
            <g id="Combined-Shape">
                <use fill="#FFED00" fill-rule="evenodd" xlink:href="#path-4"></use>
                <path stroke="#C6B907" stroke-width="2" d="M371,307.62069 L370,307.62069 L371,308.62069 L371,307.62069 Z M371,288.931034 L371,287.931034 L370,288.931034 L371,288.931034 Z M372,285.591323 L371.965529,285.463458 L372,285.723753 L372,285.591323 Z M373.655699,261 L373.743245,260.096153 L372.747879,261 L373.655699,261 Z M374.922181,261 L375.808364,261 L374.81562,260.120247 L374.922181,261 Z M377,278.154146 L377.007256,278.21405 L377,278.093803 L377,278.154146 Z M377,285.556718 L377,285.723753 L377.054287,285.39875 L377,285.556718 Z M378,288.931034 L379,288.931034 L378,287.931034 L378,288.931034 Z M378,307.62069 L378,308.62069 L379,307.62069 L378,307.62069 Z M374.536856,317.961614 C374.370044,318.451643 374.220417,318.815015 374.095863,319.041825 C374.049631,319.126011 374.016876,319.173051 374.012966,319.176997 C374.105036,319.084064 374.262553,319 374.5,319 C374.744406,319 374.910695,319.090803 375.007336,319.19272 C375.008204,319.193635 374.98032,319.150991 374.939891,319.071199 C374.823622,318.84173 374.686426,318.468051 374.536856,317.961614 Z"></path>
            </g>
            <polygon id="Path-23" fill="#FFED00" points="362 150.80806 371.591324 146 380 149.338869 370.075918 157"></polygon>
            <polyline id="Path-9" stroke="#434343" stroke-width="2" points="334 484 359.129242 484 360.378201 481 388.691874 481 390.297679 484 416 484"></polyline>
            <path d="M363,507.909091 L363,526.090909" id="Line-43" stroke="#C6B907" stroke-width="2" stroke-linecap="square"></path>
            <path d="M365,506.666667 L382.111111,506.666667" id="Line-44" stroke="#C6B907" stroke-width="2" stroke-linecap="square"></path>
            <polyline id="Path-19" stroke="#434343" stroke-width="2" points="369 253 369 256.903081 370.866723 259 377.816533 259 379 256.903081 379 253"></polyline>
            <polyline id="Path-20" stroke="#434343" stroke-width="2" points="365 256 365 271.901277 368.276705 275 381.32676 275 384 271.901277 384 256"></polyline>
            <path d="M372,147 L370,156" id="Line-62" stroke="#C6BA07" stroke-width="2" stroke-linecap="square"></path>
            <g id="Rectangle-12">
                <use fill="#FFED00" fill-rule="evenodd" xlink:href="#path-5"></use>
                <path stroke="#C6B907" stroke-width="2" d="M370.020831,158.152348 L372.928717,227.667055 C373.196485,237.180216 373.451702,244.522592 373.694227,249.692073 C374.142504,244.520691 374.690072,237.167753 375.335405,227.660908 L377.927944,152.083426 L370.020831,158.152348 Z M372.678925,258.497946 C372.678173,258.499793 372.677423,258.501644 372.676675,258.503498 C372.678656,258.49859 372.681304,258.49086 372.68452,258.480486 Z"></path>
            </g>
            <g id="Group-6" transform="translate(209.000000, 382.000000)" stroke="#434343" stroke-width="2">
                <ellipse id="Oval" fill="#757575" cx="32.5" cy="32" rx="32.5" ry="32"></ellipse>
                <path d="M0.5,32.4848485 L65.5,32.4848485" id="Line-2" stroke-linecap="square"></path>
                <path d="M33,64 L33,0.96969697" id="Line-2-Copy" fill="#525151" stroke-linecap="square"></path>
                <path d="M10.0190296,10.2002711 L55.9809704,54.7694258" id="Line-2-Copy-3" fill="#525151" stroke-linecap="square"></path>
                <path d="M10.1654762,54.4265862 L56.127417,9.85743149" id="Line-2-Copy-2" fill="#525151" stroke-linecap="square"></path>
                <ellipse id="Oval-Copy" fill="#757575" cx="33" cy="32" rx="15" ry="14.5454545"></ellipse>
            </g>
            <ellipse id="Oval-Copy-2" stroke="#434343" stroke-width="2" fill="#757575" cx="157.5" cy="479" rx="10.5" ry="10"></ellipse>
            <g id="Rectangle-2">
                <use fill="#FFED00" fill-rule="evenodd" xlink:href="#path-6"></use>
                <path stroke="#C6B907" stroke-width="2" d="M352.835875,154.426916 C352.847728,154.436107 352.848189,154.436348 352.836711,154.427208 L352.835875,154.426916 Z M352.560312,154.211254 C353.933737,154.22525 355.327077,154.326542 358.576862,154.608502 C358.849223,154.632123 358.849223,154.632123 359.12152,154.655619 C363.563555,155.038093 366.229177,155.109947 367.519024,154.824812 C367.490788,154.790222 367.461668,154.754715 367.431668,154.718296 C367.466936,154.763734 367.537082,154.845862 367.649544,154.986027 C367.608383,154.934721 367.564869,154.880975 367.519024,154.824812 C367.743674,154.775151 367.92659,154.71466 368.06989,154.643096 C367.59498,154.833423 367.311764,154.563817 367.431668,154.718296 C367.041347,154.244467 366.502003,153.616269 365.822501,152.844056 C364.207528,151.008738 361.8257,148.388019 358.836974,145.15691 C352.741788,138.56741 344.503365,129.849753 335.891872,120.884939 C315.211293,99.3558585 296.882608,81.0347718 287.833243,73.0791264 C274.937182,63.6889124 259.902545,53.6495074 242.697968,42.9409383 C238.28702,39.9563841 234.908779,37.8018819 232.571864,36.4816704 C231.859538,36.0792507 231.247738,35.7566269 230.7403,35.514735 C231.044183,35.9411951 231.433306,36.4451418 231.906272,37.0232707 C233.56012,39.0448493 236.205686,41.93511 239.837002,45.6858295 L239.933872,45.8023978 C256.170908,68.6662267 266.705201,82.377623 271.452938,86.8474161 C278.32727,93.3193086 287.021131,100.963988 297.217378,109.562326 C299.333249,111.346607 301.506512,113.165717 303.733766,115.01737 C313.703551,123.305868 324.313181,131.885175 335.400905,140.687019 C340.881211,145.037487 350.762159,152.801553 352.560312,154.211254 Z"></path>
            </g>
            <polygon id="Rectangle-6" stroke="#474747" stroke-width="2" fill="#757575" points="358 533.072875 392.493119 496 397 499.927125 362.506881 537"></polygon>
            <path d="M239,31.4576427 C234.923905,30.4095326 231.748155,31.1536922 229.105451,33.7731322 C226.094464,36.7576126 225.273025,40.4999019 226.641131,45" id="Line" stroke="#9E9E9E" stroke-width="2" stroke-linecap="square"></path>
            <path d="M392,282 L535.307692,267.681818" id="Line-69" stroke="#DD632D" stroke-width="2" stroke-linecap="square"></path>
            <g id="Group-2" transform="translate(269.000000, 32.000000)">
                <path d="M98,4.5 L14.5,4.5" id="Line-38-Copy" stroke="#DD632D" stroke-width="2" stroke-linecap="square"></path>
                <polygon id="Shape-Copy" fill="#DD632D" fill-rule="nonzero" points="17 9 0 4.49354376 17 0"></polygon>
            </g>
            <g id="Group-4" transform="translate(389.000000, 239.000000)">
                <path d="M148,0 L3,28" id="Line-2" stroke="#DD632D" stroke-width="2" stroke-linecap="square"></path>
                <polygon id="Shape-Copy-2" fill="#DD632D" fill-rule="nonzero" transform="translate(9.500000, 26.500000) rotate(-10.000000) translate(-9.500000, -26.500000) " points="18 31 1 26.4935438 18 22"></polygon>
            </g>
            <polygon id="Shape-Copy-3" fill="#DD632D" fill-rule="nonzero" transform="translate(398.500000, 281.500000) rotate(-366.000000) translate(-398.500000, -281.500000) " points="407 286 390 281.493544 407 277"></polygon>
            <g id="Group-5" transform="translate(467.500000, 337.500000) rotate(-10.000000) translate(-467.500000, -337.500000) translate(398.000000, 318.000000)">
                <polygon id="Shape-Copy-4" fill="#DD632D" fill-rule="nonzero" transform="translate(9.500000, 6.500000) rotate(14.000000) translate(-9.500000, -6.500000) " points="18 11 1 6.49354376 18 2"></polygon>
                <g id="Group-3" transform="translate(8.000000, 6.000000)" stroke="#DD632D" stroke-linecap="square" stroke-width="2">
                    <path d="M130.12953,32.0608986 L0,0" id="Line-68"></path>
                </g>
            </g>
            <g id="Group-5-Copy-3" transform="translate(466.000000, 476.500000) rotate(-13.000000) translate(-466.000000, -476.500000) translate(396.000000, 457.000000)">
                <polygon id="Shape-Copy-4" fill="#DD632D" fill-rule="nonzero" transform="translate(9.500000, 6.500000) rotate(14.000000) translate(-9.500000, -6.500000) " points="18 11 1 6.49354376 18 2"></polygon>
                <g id="Group-3" transform="translate(8.000000, 6.000000)" stroke="#DD632D" stroke-linecap="square" stroke-width="2">
                    <path d="M131.832019,32.4803525 L0,0" id="Line-68"></path>
                </g>
            </g>
            <g id="Group-5-Copy" transform="translate(465.500000, 369.500000) rotate(-2.000000) translate(-465.500000, -369.500000) translate(395.000000, 350.000000)">
                <polygon id="Shape-Copy-4" fill="#DD632D" fill-rule="nonzero" transform="translate(9.500000, 6.500000) rotate(14.000000) translate(-9.500000, -6.500000) " points="18 11 1 6.49354376 18 2"></polygon>
                <g id="Group-3" transform="translate(8.000000, 6.000000)" stroke="#DD632D" stroke-linecap="square" stroke-width="2">
                    <path d="M132.836567,32.72785 L0,0" id="Line-68"></path>
                </g>
            </g>
            <g id="Group-5-Copy-2" transform="translate(446.000000, 424.500000) rotate(-7.000000) translate(-446.000000, -424.500000) translate(356.000000, 402.000000)">
                <polygon id="Shape-Copy-4" fill="#DD632D" fill-rule="nonzero" transform="translate(9.500000, 6.500000) rotate(14.000000) translate(-9.500000, -6.500000) " points="18 11 1 6.49354376 18 2"></polygon>
                <g id="Group-3" transform="translate(8.000000, 6.000000)" stroke="#DD632D" stroke-linecap="square" stroke-width="2">
                    <path d="M171.68209,38.2179962 L0,0" id="Line-68"></path>
                </g>
            </g>
            <g id="Rectangle-14">
                <use fill="#DDDDDD" fill-rule="evenodd" xlink:href="#path-7"></use>
                <path stroke="#474747" stroke-width="2" d="M355.354789,354 L356.896456,359 L394.270211,359 L395.811878,354 L355.354789,354 Z"></path>
            </g>
            <g id="Group-3-Copy-6" transform="translate(292.500000, 504.500000) scale(-1, 1) rotate(-152.000000) translate(-292.500000, -504.500000) translate(287.000000, 440.000000)">
                <path d="M6,109 L6,0.429646092" id="Shape" stroke="#EA7904" stroke-width="2"></path>
                <polygon id="Shape" fill="#FF8100" fill-rule="nonzero" points="0 109 5.50789096 129 11 109"></polygon>
            </g>
            <g id="Group-3-Copy-6-Copy" transform="translate(130.500000, 535.500000) rotate(-152.000000) translate(-130.500000, -535.500000) translate(125.000000, 493.000000)">
                <path d="M6,65 L6,0.0523221098" id="Shape" stroke="#EA7904" stroke-width="2"></path>
                <polygon id="Shape" fill="#FF8100" fill-rule="nonzero" points="0 65 5.50789096 85 11 65"></polygon>
            </g>
            <g id="Ocular-(eyepiece)" transform="translate(383.000000, 23.000000)" fill="#000000" font-family="OpenSans-Regular, Open Sans" font-size="18" font-weight="normal">
                <text>
                    <tspan x="0" y="19">Ocular (eyepiece)</tspan>
                </text>
            </g>
            <g id="Objective-lense" transform="translate(547.000000, 224.000000)" fill="#000000" font-family="OpenSans-Regular, Open Sans" font-size="18" font-weight="normal">
                <text>
                    <tspan x="0" y="19">Objective lense</tspan>
                </text>
            </g>
            <g id="Stage" transform="translate(547.000000, 255.000000)" fill="#000000" font-family="OpenSans-Regular, Open Sans" font-size="18" font-weight="normal">
                <text>
                    <tspan x="0" y="19">Stage</tspan>
                </text>
            </g>
            <g id="Condenser-lens" transform="translate(547.000000, 332.000000)" fill="#000000" font-family="OpenSans-Regular, Open Sans" font-size="18" font-weight="normal">
                <text>
                    <tspan x="0" y="19">Condenser lens</tspan>
                </text>
            </g>
            <g id="Condenser-diaphragm" transform="translate(547.000000, 376.000000)" fill="#000000" font-family="OpenSans-Regular, Open Sans" font-size="18" font-weight="normal">
                <text>
                    <tspan x="0" y="19">Condenser diaphragm</tspan>
                </text>
            </g>
            <g id="Specimen-focusing-knobs" transform="translate(215.000000, 564.000000)" fill="#000000" font-family="OpenSans-Regular, Open Sans" font-size="18" font-weight="normal">
                <text>
                    <tspan x="0" y="19">Specimen focusing knobs</tspan>
                </text>
            </g>
            <g id="Lamp-focusing-knob" transform="translate(0.000000, 578.000000)" fill="#000000" font-family="OpenSans-Regular, Open Sans" font-size="18" font-weight="normal">
                <text>
                    <tspan x="0" y="19">Lamp focusing knob</tspan>
                </text>
            </g>
            <g id="Condenser-focusing-knob" transform="translate(547.000000, 421.000000)" fill="#000000" font-family="OpenSans-Regular, Open Sans" font-size="18" font-weight="normal">
                <text>
                    <tspan x="0" y="19">Condenser focusing knob</tspan>
                </text>
            </g>
            <g id="Field-stop-diaphragm" transform="translate(547.000000, 466.000000)" fill="#000000" font-family="OpenSans-Regular, Open Sans" font-size="18" font-weight="normal">
                <text>
                    <tspan x="0" y="19">Field stop diaphragm</tspan>
                </text>
            </g>
        </g>
    </g>
</svg>