<?xml version="1.0" encoding="utf-8"?>
<svg viewBox="0 0 824 1136" version="1.1" style="background: #FFFFFF;" xmlns="http://www.w3.org/2000/svg">
  <title>figure_1</title>
  <desc>Created with Sketch.</desc>
  <defs>
    <radialGradient cx="0.6342997360229492" cy="0.5088286209106445" r="0.7168301391601563" gradientTransform="translate(0.634300,0.508829),scale(1.000000,0.935367),rotate(90.000000),translate(-0.634300,-0.508829)" id="radialGradient-1">
      <stop stop-color="#FFFFFF" offset="0"/>
      <stop stop-color="#B8B8B8" offset="1"/>
    </radialGradient>
    <path d="M142.532709,130.263981 C141.101257,127.925253 140.695296,126.306994 141.314827,125.409204 C144.301806,121.080643 147.724549,118.022991 150.584793,118.022991 C153.497423,118.022991 154.834518,118.689722 154.596077,120.023183 C160.322929,130.268126 163.186355,135.390597 163.186355,135.390597 C163.186355,135.390597 163.963935,138.287617 165.519094,144.081655 C159.827361,141.489346 156.981494,140.193192 156.981494,140.193192 C156.981494,140.193192 152.165232,136.883455 142.532709,130.263981 Z" id="path-2"/>
    <path d="M208.517417,618.041 C212.703409,617.189012 217.795244,616.763019 223.792921,616.763019 L302.236716,616.763019 C303.609894,560.812373 306.018627,507.359164 309.462917,456.403392 C309.716133,452.657237 314.540394,452.672253 314.882567,456.403392 C319.500146,506.754625 322.539291,559.593284 324,614.919369 C322.795633,614.919369 316.143389,621.983058 304.043266,636.110437 C269.615313,636.110437 263.765514,638.610157 223.792921,636.110437 C217.042582,635.688299 212.350679,634.991313 208.380858,633.84292 C206.784642,636.653118 203.898111,638 199.244801,638 C193.933254,638 189.851654,637.59893 187,636.796789 L187,614.918402 C190.536476,613.639467 194.618076,613 199.244801,613 C203.659208,613 206.809282,614.654264 208.517417,618.041 Z" id="path-3"/>
    <path d="M309.468868,417.213594 L308,417.213594 L308,396.509098 L309.595056,396.509098 L309,394.300233 L309,386.66481 L310.747879,368.558028 L313.808364,368.558028 L316,386.66481 L316,394.300233 L315.241448,396.509098 L317,396.509098 L317,417.213594 L315.646339,417.213594 L315.005306,420.966423 C313.896539,426.056186 313.061438,428.601067 312.5,428.601067 C311.938562,428.601067 311.21147,426.056186 310.318724,420.966423 L309.468868,417.213594 Z" id="path-4"/>
    <path d="M307,266.67527 L317,259 L314.334817,336.695191 C312.919277,357.565064 311.977965,368 311.51088,368 C311.043796,368 310.51654,357.565064 309.929113,336.695191 L307,266.67527 Z" id="path-5"/>
    <path d="M177.131572,155.214238 C169.824053,147.705326 166.469511,143.626035 167.067947,142.976365 C167.666384,142.326696 172.402639,144.988599 181.276712,150.962074 C198.490923,161.62058 213.564799,171.634323 226.498339,181.003304 C246.88609,198.822142 307.89391,262.94097 307.173828,263.620929 C305.297592,265.392624 295.650163,263.620929 290.372371,263.620929 C284.761031,259.176111 235.65697,221.383382 208.82121,196.248826 C203.99845,191.731796 193.435237,178.0536 177.131572,155.214238 Z" id="path-6"/>
  </defs>
  <g id="figure_1" stroke="none" stroke-width="1" fill="none" fill-rule="evenodd">
    <g id="FONT" transform="translate(97.000000, 56.000000)">
      <path d="M103.962365,646.134931 L104.891824,650.138012 L5.33665446,650.138012 C2.91038573,649.763959 1.39179125,649.121101 0.780871043,648.209436 C0.169950833,647.297772 -0.0825009338,645.297732 0.0235157431,642.209318 L5.33665446,554.549986 C5.51054246,551.951506 5.97085913,550.318571 6.71760446,549.651179 C7.46434979,548.983788 9.15600966,548.693429 11.7925841,548.780104 L74.6835938,548.780104 L74.6835938,323.549276 L266.685681,277.427022 L266.30826,264.344503 L222.168401,225.980022 L220.398086,227.832662 L199.051052,207.790751 L206.104492,200.147294 L194.742188,189.078286 L192.087245,191.377332 L181.921127,181.201342 L181.921127,175.52307 L171.683714,164.724256 L169.537571,166.820947 C168.56126,167.774761 166.978348,167.774761 166.002037,166.820947 C164.410544,165.266125 164.410544,163.719686 165.386854,162.765872 L188.99648,138.541171 C189.972791,137.587357 191.555704,137.587357 192.532014,138.541171 C193.722847,139.704564 193.573751,140.82629 193.154306,141.847763 C192.862366,142.558724 192.43946,143.221119 192.038799,143.612548 C195.337871,148.038406 198.856406,151.336164 202.594405,153.505824 C204.537951,154.633923 206.700959,154.633923 209.083432,153.505824 L220.398086,164.724256 L218.036518,166.993411 L228.530997,176.261176 L234.082031,170.531352 L256.102662,189.246436 L255,191.377332 L302.839418,233.849396 L303.977539,234.10898 L352.044847,234.10898 C356.143825,234.082936 358.354184,235.509825 358.675926,238.389648 C358.995019,241.245768 359.154565,243.722005 359.154565,245.818359 L359.154565,276.948407 L370.169197,274.867584 L372.413136,279.796012 L372.413136,293.270156 C377.4305,295.328925 380.461138,296.949776 381.505049,298.132707 C382.54896,299.315638 381.944906,300.444523 379.692885,301.519363 L392.672425,308.016389 L392.672425,311.834379 L411.116245,325.227509 L413.057473,331.848231 L419.34375,335.361127 L419.34375,343.467978 L411.116245,356.22968 L403.1903,356.22968 L397.555813,351.201654 L392.672425,350.231173 L375.57049,341.011154 L370.169197,341.011154 L359.154565,331.991045 L355.93001,334.407669 L349.429919,331.991045 L340.829983,337.920564 L332.663044,336.036354 L332.663044,347.772911 L330.698748,360.089039 L326.839172,362.795244 L326.839172,390.527815 L312.397004,396.195333 L295.542484,387.64924 L295.542484,362.795244 L293.155447,360.089039 L295.542484,347.772911 L290.180247,345.310056 L290.180247,334.407669 L279.067029,327.786946 L282.403779,319.370805 L153.175341,374.412142 L153.175341,430.156084 L219.675681,430.156084 L219.675681,414.19763 L205.085677,414.19763 L205.085677,396.195333 L255,396.195333 L255,391.028057 L271,391.028057 L271,396.195333 L400.915659,396.195333 L400.915659,414.19763 L385.199286,414.19763 L385.199286,424.744074 L383.1903,424.744074 L383.1903,432.189586 L344.794205,433.40824 L344.794205,438.501766 L359.154565,442.168071 L358.675926,438.501766 L367.886636,438.501766 L367.886636,452.81018 L369.826983,452.81018 L369.826983,466.88848 L366.292022,466.88848 L366.292022,476.077512 L409,476.077512 L409,485.473074 L358.955153,485.473074 C358.626647,487.860148 356.533346,489.700795 354,489.700795 C351.466654,489.700795 349.373353,487.860148 349.044847,485.473074 L340.829983,485.473074 L340.829983,477.842578 L290.180247,477.842578 C284.995935,477.842578 281.291529,479.124148 279.067029,481.687286 C276.842529,484.250424 275.445713,487.466269 274.876583,491.334821 L274.876583,558.930484 L262.685681,558.930484 L262.685681,594.840352 L272.056161,594.840352 L272.056161,593.072111 L269.133858,589.818606 L269.133858,581.611328 L357.381934,581.611328 L357.381934,589.818606 L355.601192,592.030541 L355.93001,594.840352 L379.692885,594.840352 C391.816218,609.938411 396.919688,627.036604 395.003296,646.134931 L394.169197,649.561642 L337.039856,649.921875 L337.039856,645.412893 L310.907102,645.412893 L307.200056,649.561642 L252.056161,649.561642 L252.056161,646.134931 L219.268251,646.134931 L219.268251,649.561642 L154.655369,649.561642 L154.655369,646.134931 L103.962365,646.134931 Z" id="Combined-Shape" stroke="#434343" stroke-width="2" fill="#757575" stroke-linecap="square"/>
      <ellipse id="Oval" stroke="#6E6E6E" stroke-width="2" fill="#F2F2F2" cx="157.106319" cy="134.301077" rx="24" ry="25.5"/>
      <ellipse id="Oval" stroke="#9E9E9E" stroke-width="2" fill="url(#radialGradient-1)" cx="157.231287" cy="134.174771" rx="20.4444444" ry="21.8571429"/>
      <g id="Rectangle" transform="translate(153.276607, 131.052323) rotate(-6.000000) translate(-153.276607, -131.052323) ">
        <path d="M 142.533 130.264 C 141.101 127.925 140.695 126.307 141.315 125.409 C 144.302 121.081 147.725 118.023 150.585 118.023 C 153.497 118.023 154.835 118.69 154.596 120.023 C 160.323 130.268 163.186 135.391 163.186 135.391 C 163.186 135.391 163.964 138.288 165.519 144.082 C 159.827 141.489 156.981 140.193 156.981 140.193 C 156.981 140.193 152.165 136.883 142.533 130.264 Z"/>
        <path stroke="#C6B907" stroke-width="2" d="M143.276618,129.561835 C149.721773,133.990948 149.759433,134.016828 153.935659,136.886732 C156.820765,138.869378 156.940627,138.951747 157.475679,139.319435 C158.68425,139.869881 158.914535,139.974765 164.003488,142.292536 C162.649434,137.247753 162.572272,136.960274 162.252784,135.76996 C161.949178,135.226829 161.848786,135.047236 160.165905,132.036678 C157.660407,127.554515 157.660407,127.554515 153.723197,120.511117 L153.548765,120.19907 L153.611691,119.847162 C153.693192,119.391373 152.95442,119.022991 150.584793,119.022991 C148.299574,119.022991 145.146231,121.617638 142.137883,125.977165 C141.833337,126.418495 142.127512,127.640764 143.276648,129.561855 Z"/>
      </g>
      <path d="M153,617.732084 L153,635.868548 C155.114186,637.44234 158.105296,638.244466 162,638.244466 C165.710502,638.244466 168.603111,637.515728 170.695043,636.086144 L171.631997,635.445849 L172.149315,636.45592 C172.78607,637.699193 173.543601,638.244466 174.5,638.244466 C175.181071,638.244466 175.739493,637.975648 176.240386,637.390623 L177,636.503421 L177.759614,637.390623 C178.260507,637.975648 178.818929,638.244466 179.5,638.244466 C180.36028,638.244466 181.048398,637.808538 181.645076,636.825189 L182.5,635.416241 L183.354924,636.825189 C183.951602,637.808538 184.63972,638.244466 185.5,638.244466 C186.527659,638.244466 187.341943,637.605072 188,636.145836 L188,617.453 C187.16031,615.646598 186.304895,614.843563 185.5,614.843563 C184.817962,614.843563 184.104376,615.41172 183.372846,616.720158 L182.5,618.28136 L181.627154,616.720158 C180.895624,615.41172 180.182038,614.843563 179.5,614.843563 C178.956129,614.843563 178.40138,615.197286 177.813359,616.019396 L177,617.15655 L176.186641,616.019396 C175.59862,615.197286 175.043871,614.843563 174.5,614.843563 C173.747057,614.843563 172.951622,615.541604 172.153377,617.135334 L171.635099,618.170096 L170.686463,617.507199 C168.143245,615.730024 165.257115,614.843563 162,614.843563 C158.60976,614.843563 155.620051,615.803928 153,617.732084 Z" id="Combined-Shape" stroke="#434343" stroke-width="2"/>
      <g id="Combined-Shape">
        <path d="M 208.517 618.041 C 212.703 617.189 217.795 616.763 223.793 616.763 L 302.237 616.763 C 303.61 560.812 306.019 507.359 309.463 456.403 C 309.716 452.657 314.54 452.672 314.883 456.403 C 319.5 506.755 322.539 559.593 324 614.919 C 322.796 614.919 316.143 621.983 304.043 636.11 C 269.615 636.11 263.766 638.61 223.793 636.11 C 217.043 635.688 212.351 634.991 208.381 633.843 C 206.785 636.653 203.898 638 199.245 638 C 193.933 638 189.852 637.599 187 636.797 L 187 614.918 C 190.536 613.639 194.618 613 199.245 613 C 203.659 613 206.809 614.654 208.517 618.041 Z"/>
        <path stroke="#C6B907" stroke-width="2" d="M188,615.63003 L188,636.023347 C190.708651,636.671202 194.462035,637 199.244801,637 C203.540319,637 206.104269,635.826219 207.511336,633.349025 L207.900952,632.663091 L208.658745,632.882306 C212.566579,634.012767 217.202171,634.696325 223.855335,635.112386 C242.862844,636.301037 254.292001,636.447695 268.808021,635.958823 C269.989932,635.919018 271.216322,635.875017 272.750038,635.817948 C273.463303,635.791408 276.160096,635.689812 276.781839,635.666625 C287.075795,635.282725 294.098086,635.115758 303.583102,635.110562 C314.395164,622.495715 320.410184,615.955106 322.983985,614.32857 C321.517572,559.247906 318.485125,506.636591 313.886746,456.494716 C313.655565,453.973858 310.62972,453.969423 310.46064,456.470832 C307.017339,507.411977 304.609249,560.85091 303.236415,616.787554 L303.212475,617.763019 L223.792921,617.763019 C217.857704,617.763019 212.830855,618.183575 208.716861,619.020909 L207.968478,619.17323 L207.624552,618.491325 C206.112387,615.49314 203.341949,614 199.244801,614 C195.016077,614 191.268496,614.544966 188,615.63003 Z"/>
      </g>
      <path d="M312.333333,423 L312.333333,456.055556" id="Line-37" stroke="#C6B907" stroke-width="2" stroke-linecap="square"/>
      <path d="M312,448 C324.150264,448 334,445.985281 334,443.5 C334,441.014719 324.150264,439 312,439 C299.849736,439 290,441.014719 290,443.5 C290,445.985281 299.849736,448 312,448 Z" id="Oval-4" stroke="#434343" stroke-width="2" fill="#DDDDDD"/>
      <g id="Combined-Shape">
        <path d="M 309.469 417.214 L 308 417.214 L 308 396.509 L 309.595 396.509 L 309 394.3 L 309 386.665 L 310.748 368.558 L 313.808 368.558 L 316 386.665 L 316 394.3 L 315.241 396.509 L 317 396.509 L 317 417.214 L 315.646 417.214 L 315.005 420.966 C 313.897 426.056 313.061 428.601 312.5 428.601 C 311.939 428.601 311.211 426.056 310.319 420.966 L 309.469 417.214 Z"/>
        <path stroke="#C6B907" stroke-width="2" d="M309,416.213594 L308,416.213594 L309,417.213594 L309,416.213594 Z M309,397.509098 L309,396.509098 L308,397.509098 L309,397.509098 Z M310,394.167895 L309.965576,394.040112 L310,394.300233 L310,394.167895 Z M311.655762,369.558028 L311.743252,368.654113 L310.747879,369.558028 L311.655762,369.558028 Z M312.922105,369.558028 L313.808364,369.558028 L312.815609,368.67819 L312.922105,369.558028 Z M315,386.72511 L315.007246,386.784972 L315,386.66481 L315,386.72511 Z M315,394.133311 L315,394.300233 L315.054215,393.975439 L315,394.133311 Z M316,397.509098 L317,397.509098 L316,396.509098 L316,397.509098 Z M316,416.213594 L316,417.213594 L317,416.213594 L316,416.213594 Z M312.53686,426.561438 C312.369999,427.051987 312.220323,427.41575 312.095717,427.642815 C312.049454,427.727119 312.016662,427.774246 312.012713,427.778234 C312.104793,427.685223 312.262371,427.601067 312.5,427.601067 C312.74459,427.601067 312.910937,427.691967 313.007582,427.793962 C313.008407,427.794832 312.980484,427.752096 312.940021,427.672182 C312.823706,427.442456 312.686469,427.068388 312.53686,426.561438 Z"/>
      </g>
      <polygon id="Path-23" fill="#FFED00" points="300 259.80806 309.591324 255 318 258.338869 308.075918 266"/>
      <polyline id="Path-9" stroke="#434343" stroke-width="2" points="272 593 297.129242 593 298.378201 590 326.691874 590 328.297679 593 354 593"/>
      <path d="M301,616.909091 L301,635.090909" id="Line-43" stroke="#C6B907" stroke-width="2" stroke-linecap="square"/>
      <path d="M303,615.666667 L320.111111,615.666667" id="Line-44" stroke="#C6B907" stroke-width="2" stroke-linecap="square"/>
      <polyline id="Path-19" stroke="#434343" stroke-width="2" points="307 362 307 365.903081 308.866723 368 315.816533 368 317 365.903081 317 362"/>
      <polyline id="Path-20" stroke="#434343" stroke-width="2" points="302.74531 364.937251 302.74531 381.049514 305.957161 384.189353 318.748921 384.189353 321.36925 381.049514 321.36925 364.937251"/>
      <path d="M310,256 L308,265" id="Line-62" stroke="#C6BA07" stroke-width="2" stroke-linecap="square"/>
      <g id="Rectangle-12">
        <path d="M 307 266.675 L 317 259 L 314.335 336.695 C 312.919 357.565 311.978 368 311.511 368 C 311.044 368 310.517 357.565 309.929 336.695 L 307 266.675 Z"/>
        <path stroke="#C6B907" stroke-width="2" d="M308.020831,267.152348 L310.928717,336.667055 C311.196485,346.180216 311.451702,353.522592 311.694227,358.692073 C312.142504,353.520691 312.690072,346.167753 313.335405,336.660908 L315.927944,261.083426 L308.020831,267.152348 Z M310.678925,367.497946 C310.678173,367.499793 310.677423,367.501644 310.676675,367.503498 C310.678656,367.49859 310.681304,367.49086 310.68452,367.480486 Z"/>
      </g>
      <ellipse id="Oval" stroke="#434343" stroke-width="2" fill="#757575" cx="179.5" cy="523" rx="32.5" ry="32"/>
      <path d="M147.5,523.484848 L212.5,523.484848" id="Line-2" stroke="#434343" stroke-width="2" stroke-linecap="square"/>
      <path d="M180,555 L180,491.969697" id="Line-2-Copy" stroke="#434343" stroke-width="2" fill="#525151" stroke-linecap="square"/>
      <path d="M157.01903,501.200271 L202.98097,545.769426" id="Line-2-Copy-3" stroke="#434343" stroke-width="2" fill="#525151" stroke-linecap="square"/>
      <path d="M157.165476,545.426586 L203.127417,500.857431" id="Line-2-Copy-2" stroke="#434343" stroke-width="2" fill="#525151" stroke-linecap="square"/>
      <ellipse id="Oval-Copy" stroke="#434343" stroke-width="2" fill="#757575" cx="180" cy="523" rx="15" ry="14.5454545"/>
      <g id="Rectangle-2">
        <path d="M 177.132 155.214 C 169.824 147.705 166.47 143.626 167.068 142.976 C 167.666 142.327 172.403 144.989 181.277 150.962 C 198.491 161.621 213.565 171.634 226.498 181.003 C 246.886 198.822 307.894 262.941 307.174 263.621 C 305.298 265.393 295.65 263.621 290.372 263.621 C 284.761 259.176 235.657 221.383 208.821 196.249 C 203.998 191.732 193.435 178.054 177.132 155.214 Z"/>
        <path stroke="#C6B907" stroke-width="2" d="M290.992452,262.836763 C291.00432,262.845919 291.004783,262.846158 290.993289,262.837054 L290.992452,262.836763 Z M290.717436,262.622639 C292.092998,262.63651 293.487846,262.737369 296.743045,263.018344 C297.015757,263.041873 297.015757,263.041873 297.288408,263.065278 C301.730973,263.445827 304.399544,263.517763 305.69385,263.234789 C305.298026,262.752707 304.730174,262.093247 304.001222,261.269106 C302.384185,259.440911 299.999302,256.830352 297.006741,253.611766 C290.903721,247.047791 282.654704,238.3639 274.032136,229.433808 C253.324966,207.988115 234.972715,189.737993 225.911693,181.813148 C212.99901,172.459275 197.944992,162.458724 180.718301,151.791638 C176.301636,148.818614 172.919009,146.67243 170.579018,145.357292 C169.86667,144.956933 169.2547,144.635847 168.746912,144.394954 C169.050118,144.817647 169.43741,145.316386 169.907409,145.887928 C171.563332,147.901614 174.212271,150.780648 177.848224,154.516807 L177.945477,154.63324 C194.203306,177.408391 204.751072,191.066586 209.504804,195.518964 C216.387972,201.965786 225.093017,209.580859 235.302382,218.145899 C237.420975,219.923271 239.597035,221.735337 241.827155,223.579821 C251.80977,231.836223 262.433055,240.38231 273.535048,249.150072 C279.023324,253.484418 288.919373,261.220278 290.717436,262.622639 Z M167.39219,143.883816 C167.387237,143.883154 167.382447,143.88257 167.37782,143.882065 C167.388951,143.88328 167.401627,143.88367 167.415712,143.882886 Z"/>
      </g>
      <polygon id="Rectangle-6" stroke="#5E5E5E" stroke-width="2" fill="#757575" points="296.207735 642.050332 330.333396 605.023254 334.792265 608.945528 300.666604 645.972606"/>
      <path d="M176.870728,140.116821 C172.684159,139.040724 169.422337,139.804754 166.708008,142.494141 C163.615415,145.558315 162.771712,149.400533 164.176898,154.020796" id="Line" stroke="#9E9E9E" stroke-width="2" stroke-linecap="square"/>
      <text id="10-x-Objective-with" font-family="OpenSans-Regular, Open Sans" font-size="18" font-weight="normal" line-spacing="23" fill="#000000" style="white-space: pre;">
                <tspan x="108" y="954">10 x Objective with 10 x Eyepiece = 100 times </tspan>
                <tspan x="108" y="977">magnified</tspan>
            </text>
      <text id="Compound-Microscope" font-family="OpenSans-Regular, Open Sans" font-size="24" font-weight="normal" fill="#D9551A" style="white-space: pre;">
                <tspan x="176" y="26">Compound Microscope</tspan>
            </text>
      <path d="M477.308673,626.5 L207.691327,626.5" id="Line-38" stroke="#DD632D" stroke-width="2" stroke-linecap="square"/>
      <text id="Eyepiece" font-family="OpenSans-Regular, Open Sans" font-size="18" font-weight="normal" fill="#000000" style="white-space: pre;">
                <tspan x="462" y="151">Eyepiece</tspan>
            </text>
      <text id="Objective-lense" font-family="OpenSans-Regular, Open Sans" font-size="18" font-weight="normal" fill="#000000" style="white-space: pre;">
                <tspan x="484" y="352">Objective lense</tspan>
            </text>
      <text id="Specimen" font-family="OpenSans-Regular, Open Sans" font-size="18" font-weight="normal" fill="#000000" style="white-space: pre;">
                <tspan x="478" y="383">Specimen</tspan>
            </text>
      <path d="M330,391 L473.307692,376.681818" id="Line-69" stroke="#DD632D" stroke-width="2" stroke-linecap="square"/>
      <text id="Condenser-lens" font-family="OpenSans-Regular, Open Sans" font-size="18" font-weight="normal" fill="#000000" style="white-space: pre;">
                <tspan x="494" y="490">Condenser lens</tspan>
            </text>
      <text id="Light-sourse" font-family="OpenSans-Regular, Open Sans" font-size="18" font-weight="normal" fill="#000000" style="white-space: pre;"><tspan x="0" dy="1em">​</tspan>                <tspan x="491" y="633">Light source</tspan><tspan x="0" dy="1em">​</tspan>            </text>
      <g id="Group-5" transform="translate(59.000000, 722.000000)">
        <text id="Has-two-sets-of-lens" font-family="OpenSans-Regular, Open Sans" font-size="18" font-weight="normal" line-spacing="23" fill="#000000" style="white-space: pre;">
                    <tspan x="50" y="46">Has two sets of lenses for magnifying objects: </tspan>
                    <tspan x="50" y="69">eyepiece lens and objective lenses</tspan>
                    <tspan x="59.8964844" y="92.8613281"/>
                    <tspan x="50" y="115">Condenser lens is present which is used to adjust </tspan>
                    <tspan x="50" y="138">the intensity of light for magnification of object</tspan>
                    <tspan x="59.8964844" y="161.861328"/>
                    <tspan x="50" y="184">Its total magnification is the multiplication of the </tspan>
                    <tspan x="50" y="207">eyepiece and objective magnifications, eg, </tspan>
                </text>
        <rect id="Rectangle-15" stroke="#DC5F27" stroke-width="2" x="1" y="1" width="493" height="282"/>
      </g>
      <polygon id="Shape" fill="#DD632D" fill-rule="nonzero" points="214 631 197 626.493544 214 622"/>
      <g id="Group-2" transform="translate(207.000000, 141.000000)">
        <path d="M248,4.5 L14.5,4.5" id="Line-38-Copy" stroke="#DD632D" stroke-width="2" stroke-linecap="square"/>
        <polygon id="Shape-Copy" fill="#DD632D" fill-rule="nonzero" points="17 9 0 4.49354376 17 0"/>
      </g>
      <g id="Group-4" transform="translate(327.000000, 348.000000)">
        <path d="M148,0 L3,28" id="Line-2" stroke="#DD632D" stroke-width="2" stroke-linecap="square"/>
        <polygon id="Shape-Copy-2" fill="#DD632D" fill-rule="nonzero" transform="translate(9.500000, 26.500000) rotate(-10.000000) translate(-9.500000, -26.500000) " points="18 31 1 26.4935438 18 22"/>
      </g>
      <polygon id="Shape-Copy-4" fill="#DD632D" fill-rule="nonzero" transform="translate(343.336162, 446.422667) rotate(14.000000) translate(-343.336162, -446.422667) " points="351.836162 450.922667 334.836162 446.416211 351.836162 441.922667"/>
      <polygon id="Shape-Copy-3" fill="#DD632D" fill-rule="nonzero" transform="translate(336.500000, 390.500000) rotate(-366.000000) translate(-336.500000, -390.500000) " points="345 395 328 390.493544 345 386"/>
      <path d="M483.307692,481.307692 L347.324349,447.80455" id="Line-68" stroke="#DD632D" stroke-width="2" stroke-linecap="square"/>
      <circle id="Oval-2-Copy-2" fill="#000000" cx="86" cy="831" r="2"/>
      <circle id="Oval-2" fill="#000000" cx="86" cy="760" r="2"/>
      <circle id="Oval-2-Copy" fill="#000000" cx="86" cy="898" r="2"/>
    </g>
  </g>
</svg>