<svg xmlns="http://www.w3.org/2000/svg" xmlns:xlink="http://www.w3.org/1999/xlink" viewBox="0 0 412.65 310.09"><defs><style>.cls-1{fill:#cbd7e2;}.cls-2{fill:url(#radial-gradient);}.cls-10,.cls-3,.cls-9{font-size:12px;font-family:OpenSans, Open Sans;}.cls-4{fill:#c6baf7;stroke:#43156b;}.cls-4,.cls-7{stroke-miterlimit:10;}.cls-5{fill:#fff;}.cls-6{fill:url(#radial-gradient-2);}.cls-7{fill:#b1e7ef;stroke:#0071bc;}.cls-8{fill:none;stroke:#fff;stroke-width:2px;}.cls-9{fill:#0071bc;}.cls-10{fill:#662d91;}</style><radialGradient id="radial-gradient" cx="306.66" cy="-58.54" fx="166.0890598910672" r="237.52" gradientTransform="matrix(0, 0.77, -0.15, 0, 298.93, -183.46)" gradientUnits="userSpaceOnUse"><stop offset="0.3" stop-color="#fff"/><stop offset="0.52" stop-color="#d6f0f4"/><stop offset="1" stop-color="#83d3dd"/></radialGradient><radialGradient id="radial-gradient-2" cx="100" cy="-58.54" fx="-40.57216218659474" r="237.52" gradientTransform="matrix(0, 0.77, -0.15, 0, 91.75, -24.99)" xlink:href="#radial-gradient"/></defs><title>figure_33</title><g id="Layer_2" data-name="Layer 2"><g id="Layer_8" data-name="Layer 8"><rect class="cls-1" x="212.65" y="86.22" width="200" height="223.87"/><rect class="cls-1" y="86.22" width="200" height="223.87"/><polygon class="cls-2" points="336.68 17.19 276.65 17.19 286.65 86.22 326.68 86.22 336.68 17.19"/><text class="cls-3" transform="translate(7.31 300.29)">Material with low atomic number</text><text class="cls-3" transform="translate(217.6 300.29)">Material with high atomic number</text><path class="cls-4" d="M120.34,86.22c0,19,5.9,23.62,10.83,31.16s14.75,12.14,20.33,25.91,17,55.77,10.81,74.46S142.32,262.37,100,263c-42.32-.66-56.1-26.57-62.32-45.27s5.26-60.68,10.81-74.46,15.43-18.37,20.35-25.91,10.81-12.14,10.81-31.16"/><path class="cls-4" d="M261.91,86.22c-5,13.29-12.09,39.86-7.39,52.52,5.3,14.32,17.05,34.15,53.13,34.66,36.08-.5,47.83-20.34,53.13-34.66,4.7-12.66-2.4-39.24-7.39-52.52"/><text class="cls-3" transform="translate(267.14 10.28)">Electron beam</text><polygon class="cls-5" points="311.67 64.89 311.67 29.92 301.65 29.92 301.65 64.89 291.66 64.88 306.65 84.66 306.67 84.66 321.66 64.88 311.67 64.89"/><polygon class="cls-6" points="130.02 17.19 69.98 17.19 79.98 86.22 120.02 86.22 130.02 17.19"/><text class="cls-3" transform="translate(61.31 10.28)">Electron beam</text><polygon class="cls-5" points="105 64.89 105 29.92 94.99 29.92 94.99 64.89 85 64.88 99.99 84.66 100.01 84.66 115 64.88 105 64.89"/><path class="cls-7" d="M120.2,86.06c0,13.28,1.12,16.49,4.56,21.75s7.29,8.47,11.19,18.09,11.9,38.93,7.54,52-14,31.14-43.5,31.6c-29.54-.46-39.16-18.55-43.5-31.6s3.67-42.36,7.55-52,7.77-12.82,11.21-18.09,4.54-8.47,4.54-21.75"/><path class="cls-7" d="M279.82,86.22c-3,8.18-7.36,24.53-4.5,32.32,3.23,8.81,10.37,21,32.32,21.33,22-.31,29.1-12.52,32.32-21.33,2.86-7.79-1.46-24.15-4.5-32.32"/><path class="cls-8" d="M155,189.22a20.57,20.57,0,0,0-12-16.91,20.74,20.74,0,0,1-10.15-27.54,20.74,20.74,0,0,0-10.15-27.54A20.74,20.74,0,0,1,112.64,89.7"/><polygon class="cls-5" points="162.26 187.95 153.19 199.84 147.43 186.04 162.26 187.95"/><path class="cls-8" d="M54.19,195.23a20.56,20.56,0,0,0,3.5-20.41A20.74,20.74,0,0,1,70,148.17a20.74,20.74,0,0,0,12.3-26.65,20.74,20.74,0,0,1,12.3-26.65"/><polygon class="cls-5" points="60.19 199.43 45.37 201.43 51.05 187.59 60.19 199.43"/><path class="cls-8" d="M84.92,247.63a20.56,20.56,0,0,0-2.75-20.53A20.74,20.74,0,0,1,86,198a20.74,20.74,0,0,0,3.79-29.1,20.74,20.74,0,0,1,3.79-29.1"/><polygon class="cls-5" points="91.91 249.85 78.36 256.18 79.65 241.28 91.91 249.85"/><path class="cls-8" d="M121.65,231.79a20.57,20.57,0,0,1,2.18-20.6,20.74,20.74,0,0,0-4.59-29,20.74,20.74,0,0,1-4.59-29,20.74,20.74,0,0,0-4.59-29"/><polygon class="cls-5" points="126.68 225.35 128.38 240.21 114.66 234.25 126.68 225.35"/><path class="cls-8" d="M355.46,121.65a8.88,8.88,0,0,0-3.83-.48c-5,.49-9.77-3.43-10.72-8.76s-5.74-9.25-10.72-8.77-9.77-3.43-10.72-8.77"/><polygon class="cls-5" points="358.4 115.53 362.31 129.96 347.85 126.13 358.4 115.53"/><path class="cls-8" d="M267.48,123.88a10.69,10.69,0,0,0,.72-3.65c.1-5.37,4.25-9.93,9.27-10.18s9.17-4.8,9.28-10.18S291,89.95,296,89.7"/><polygon class="cls-5" points="273.48 127.06 258.9 130.38 263.32 116.09 273.48 127.06"/><path class="cls-8" d="M284,155.1a10.22,10.22,0,0,0-.56-3.91,10.64,10.64,0,0,1,5.31-12.93A10.64,10.64,0,0,0,294,125.33a10.63,10.63,0,0,1,5.31-12.93"/><polygon class="cls-5" points="290.71 156.15 278.05 164.11 277.48 149.17 290.71 156.15"/><path class="cls-8" d="M336.1,150a10.22,10.22,0,0,1,.12-3.93,10.62,10.62,0,0,0-6.72-12.24,10.62,10.62,0,0,1-6.73-12.24A10.62,10.62,0,0,0,316,109.29"/><polygon class="cls-5" points="341.8 143.38 342.91 158.29 329.44 151.8 341.8 143.38"/><text class="cls-9" transform="translate(127.85 102.25)">Low voltage</text><text class="cls-10" transform="translate(124.83 273.53)">High voltage</text><text class="cls-9" transform="translate(365.34 100.28)">Low<tspan x="0" y="14.4">voltage</tspan></text><text class="cls-10" transform="translate(273.49 190.2)">High voltage</text></g></g></svg>