<?xml version="1.0" encoding="utf-8"?>
<svg viewBox="-100.04229736328125 26.076719284057617 427.51422119140625 112.45813751220703" version="1.1" xmlns="http://www.w3.org/2000/svg">
  <title>figure_41</title>
  <desc>Created with Sketch.</desc>
  <g id="Page-1" stroke="none" stroke-width="1" fill="none" fill-rule="evenodd" transform="matrix(1, 0, 0, 1, -27.035185, 27.55579)">
    <g id="figure_41">
      <g id="lines">
        <rect id="Rectangle-Copy" fill="#F9F9F9" x="0" y="0" width="281" height="37"/>
        <rect id="Rectangle" stroke="#979797" x="0.5" y="0.5" width="281" height="109"/>
        <path d="M1,36.5 L281,36.5" id="Line" stroke="#979797" stroke-linecap="square"/>
        <path d="M1,73.5 L281,73.5" id="Line-Copy-3" stroke="#979797" stroke-linecap="square"/>
        <path d="M107.5,1 L107.5,109" id="Line-2-Copy-2" stroke="#979797" stroke-linecap="square"/>
      </g>
      <g id="text" transform="translate(18.000000, 13.000000)">
        <path d="M36.304675,9.65820312 L34.2363156,9.65820312 L33.0761594,5.15820312 C33.0331904,4.99804607 32.959949,4.6669947 32.8564328,4.16503906 C32.7529167,3.66308343 32.693347,3.32617273 32.6777219,3.15429688 C32.6542843,3.36523543 32.5956911,3.70409923 32.5019406,4.17089844 C32.4081902,4.63769765 32.3359253,4.97070213 32.2851437,5.16992188 L31.1308469,9.65820312 L29.0683469,9.65820312 L26.8828,1.09179688 L28.6699094,1.09179688 L29.7656125,5.76757812 C29.9570197,6.63086369 30.0956902,7.37890309 30.1816281,8.01171875 C30.2050657,7.78906139 30.2587761,7.44433827 30.3427609,6.97753906 C30.4267457,6.51073985 30.5058465,6.14843879 30.5800656,5.890625 L31.8281125,1.09179688 L33.5449094,1.09179688 L34.7929562,5.890625 C34.847644,6.10546982 34.9160027,6.43359154 34.9980344,6.875 C35.080066,7.31640846 35.1425654,7.69531092 35.1855344,8.01171875 C35.2245971,7.70702973 35.2870964,7.32715071 35.3730344,6.87207031 C35.4589723,6.41698991 35.5370965,6.04882953 35.6074094,5.76757812 L36.6972531,1.09179688 L38.4843625,1.09179688 L36.304675,9.65820312 Z M46.6697094,5.29296875 C46.6697094,6.70313205 46.2683462,7.78319937 45.4656078,8.53320312 C44.6628694,9.28320688 43.5037013,9.65820312 41.9880687,9.65820312 L39.5622875,9.65820312 L39.5622875,1.09179688 L42.2517406,1.09179688 C43.6501851,1.09179688 44.7361118,1.46093381 45.5095531,2.19921875 C46.2829945,2.93750369 46.6697094,3.96874338 46.6697094,5.29296875 Z M44.7829906,5.33984375 C44.7829906,3.4999908 43.9704987,2.58007812 42.3454906,2.58007812 L41.3786937,2.58007812 L41.3786937,8.15820312 L42.1579906,8.15820312 C43.9079994,8.15820312 44.7829906,7.21875939 44.7829906,5.33984375 Z" id="WD" fill="#AA3311"/>
        <path d="M149.478556,4.18554688 C150.306685,4.18554688 150.965858,4.41796643 151.456095,4.8828125 C151.946332,5.34765857 152.191447,5.98437096 152.191447,6.79296875 C152.191447,7.75000479 151.896528,8.48632555 151.306681,9.00195312 C150.716835,9.5175807 149.873093,9.77539062 148.775431,9.77539062 C147.822301,9.77539062 147.052778,9.62109529 146.466837,9.3125 L146.466837,7.74804688 C146.775433,7.9121102 147.134804,8.04589792 147.544962,8.14941406 C147.955121,8.25293021 148.343789,8.3046875 148.710978,8.3046875 C149.816452,8.3046875 150.369181,7.85156703 150.369181,6.9453125 C150.369181,6.08202693 149.796921,5.65039062 148.652384,5.65039062 C148.445352,5.65039062 148.216839,5.67089823 147.966837,5.71191406 C147.716836,5.75292989 147.513713,5.79687477 147.357462,5.84375 L146.636759,5.45703125 L146.959025,1.09179688 L151.605509,1.09179688 L151.605509,2.62695312 L148.546916,2.62695312 L148.388712,4.30859375 L148.593791,4.26757812 C148.832073,4.21289035 149.126992,4.18554688 149.478556,4.18554688 Z M159.544562,8.3515625 C159.857064,8.3515625 160.23206,8.28320381 160.669562,8.14648438 L160.669562,9.4765625 C160.224248,9.67578225 159.677378,9.77539062 159.028937,9.77539062 C158.31409,9.77539062 157.793588,9.59472837 157.467414,9.23339844 C157.141241,8.87206851 156.978156,8.33008174 156.978156,7.60742188 L156.978156,4.44921875 L156.122687,4.44921875 L156.122687,3.69335938 L157.107062,3.09570312 L157.622687,1.71289062 L158.765266,1.71289062 L158.765266,3.10742188 L160.59925,3.10742188 L160.59925,4.44921875 L158.765266,4.44921875 L158.765266,7.60742188 C158.765266,7.86132939 158.836554,8.04882752 158.979133,8.16992188 C159.121712,8.29101623 159.310186,8.3515625 159.544562,8.3515625 Z M163.417409,6.37109375 C163.417409,7.01953449 163.523854,7.50976396 163.736745,7.84179688 C163.949637,8.17382979 164.296313,8.33984375 164.776784,8.33984375 C165.253349,8.33984375 165.596119,8.17480634 165.805105,7.84472656 C166.01409,7.51464679 166.118581,7.02344076 166.118581,6.37109375 C166.118581,5.72265301 166.013114,5.23632975 165.802175,4.91210938 C165.591236,4.587889 165.245537,4.42578125 164.765066,4.42578125 C164.288501,4.42578125 163.944754,4.58691245 163.733816,4.90917969 C163.522877,5.23144692 163.417409,5.71874674 163.417409,6.37109375 Z M167.946706,6.37109375 C167.946706,7.43750533 167.665459,8.27148137 167.102956,8.87304688 C166.540453,9.47461238 165.757258,9.77539062 164.753347,9.77539062 C164.124437,9.77539062 163.569756,9.63769669 163.089284,9.36230469 C162.608813,9.08691269 162.239676,8.69140883 161.981863,8.17578125 C161.724049,7.66015367 161.595144,7.05859719 161.595144,6.37109375 C161.595144,5.3007759 161.874438,4.46875297 162.433034,3.875 C162.991631,3.28124703 163.776779,2.984375 164.788503,2.984375 C165.417413,2.984375 165.972094,3.12109238 166.452566,3.39453125 C166.933037,3.66797012 167.302174,4.06054432 167.559988,4.57226562 C167.817801,5.08398693 167.946706,5.68359031 167.946706,6.37109375 Z M177.737322,3.0078125 C177.737322,3.54297143 177.575214,3.998045 177.250994,4.37304688 C176.926773,4.74804875 176.4717,5.00585867 175.885759,5.14648438 L175.885759,5.18164062 C176.577169,5.26757855 177.100601,5.47753739 177.456072,5.81152344 C177.811542,6.14550948 177.989275,6.59570029 177.989275,7.16210938 C177.989275,7.98633225 177.69045,8.62792739 177.092791,9.08691406 C176.495131,9.54590073 175.641624,9.77539062 174.532244,9.77539062 C173.602552,9.77539062 172.778341,9.62109529 172.059587,9.3125 L172.059587,7.77148438 C172.39162,7.93945396 172.756851,8.07617135 173.155291,8.18164062 C173.55373,8.2871099 173.948257,8.33984375 174.338884,8.33984375 C174.936544,8.33984375 175.377945,8.23828227 175.663103,8.03515625 C175.948261,7.83203023 176.090837,7.50586162 176.090837,7.05664062 C176.090837,6.65429486 175.926777,6.36914146 175.59865,6.20117188 C175.270523,6.03320229 174.747091,5.94921875 174.028337,5.94921875 L173.377947,5.94921875 L173.377947,4.56054688 L174.040056,4.56054688 C174.704122,4.56054688 175.189469,4.47363368 175.496111,4.29980469 C175.802753,4.12597569 175.956072,3.82812711 175.956072,3.40625 C175.956072,2.75780926 175.549826,2.43359375 174.737322,2.43359375 C174.45607,2.43359375 174.169941,2.48046828 173.878923,2.57421875 C173.587906,2.66796922 173.264667,2.83007697 172.909197,3.06054688 L172.071306,1.8125 C172.85256,1.24999719 173.784191,0.96875 174.866228,0.96875 C175.752951,0.96875 176.45314,1.1484357 176.966814,1.5078125 C177.480489,1.8671893 177.737322,2.3671843 177.737322,3.0078125 Z M184.873841,5.375 C184.873841,6.87110123 184.628726,7.97851203 184.138489,8.69726562 C183.648252,9.41601922 182.893377,9.77539062 181.873841,9.77539062 C180.885554,9.77539062 180.140445,9.40430059 179.638489,8.66210938 C179.136533,7.91991816 178.885559,6.824226 178.885559,5.375 C178.885559,3.86327369 179.129698,2.74902702 179.617981,2.03222656 C180.106265,1.3154261 180.858211,0.95703125 181.873841,0.95703125 C182.862127,0.95703125 183.60919,1.3320275 184.115052,2.08203125 C184.620913,2.832035 184.873841,3.92968027 184.873841,5.375 Z M180.684387,5.375 C180.684387,6.4257865 180.775207,7.17870866 180.956848,7.63378906 C181.13849,8.08886946 181.444151,8.31640625 181.873841,8.31640625 C182.295718,8.31640625 182.600402,8.0859398 182.787903,7.625 C182.975404,7.1640602 183.069153,6.4140677 183.069153,5.375 C183.069153,4.3242135 182.974428,3.56933823 182.784973,3.11035156 C182.595519,2.65136489 182.291811,2.421875 181.873841,2.421875 C181.448057,2.421875 181.143373,2.65136489 180.959778,3.11035156 C180.776183,3.56933823 180.684387,4.3242135 180.684387,5.375 Z M192.104109,9.65820312 L190.317,9.65820312 L190.317,5.83203125 C190.317,5.35937264 190.237899,5.00488399 190.079695,4.76855469 C189.921491,4.53222538 189.67247,4.4140625 189.332625,4.4140625 C188.875591,4.4140625 188.543564,4.58202957 188.336531,4.91796875 C188.129499,5.25390793 188.025984,5.80663678 188.025984,6.57617188 L188.025984,9.65820312 L186.238875,9.65820312 L186.238875,3.10742187 L187.604109,3.10742187 L187.844344,3.9453125 L187.943953,3.9453125 C188.119735,3.64452975 188.373639,3.40918054 188.705672,3.23925781 C189.037705,3.06933509 189.41856,2.984375 189.84825,2.984375 C190.828724,2.984375 191.49278,3.3046843 191.840438,3.9453125 L191.998641,3.9453125 C192.174423,3.64062348 192.433209,3.40429771 192.775008,3.23632812 C193.116806,3.06835854 193.502545,2.984375 193.932234,2.984375 C194.674426,2.984375 195.235943,3.17480278 195.616805,3.55566406 C195.997666,3.93652534 196.188094,4.5468708 196.188094,5.38671875 L196.188094,9.65820312 L194.395125,9.65820312 L194.395125,5.83203125 C194.395125,5.35937264 194.316024,5.00488399 194.15782,4.76855469 C193.999616,4.53222538 193.750595,4.4140625 193.41075,4.4140625 C192.973248,4.4140625 192.646103,4.57031094 192.429305,4.8828125 C192.212507,5.19531406 192.104109,5.69140285 192.104109,6.37109375 L192.104109,9.65820312 Z M203.887113,9.65820312 L202.100003,9.65820312 L202.100003,5.83203125 C202.100003,5.35937264 202.020902,5.00488399 201.862698,4.76855469 C201.704495,4.53222538 201.455474,4.4140625 201.115628,4.4140625 C200.658595,4.4140625 200.326567,4.58202957 200.119534,4.91796875 C199.912502,5.25390793 199.808988,5.80663678 199.808988,6.57617188 L199.808988,9.65820312 L198.021878,9.65820312 L198.021878,3.10742187 L199.387113,3.10742187 L199.627347,3.9453125 L199.726956,3.9453125 C199.902738,3.64452975 200.156642,3.40918054 200.488675,3.23925781 C200.820708,3.06933509 201.201563,2.984375 201.631253,2.984375 C202.611727,2.984375 203.275783,3.3046843 203.623441,3.9453125 L203.781644,3.9453125 C203.957426,3.64062348 204.216212,3.40429771 204.558011,3.23632812 C204.89981,3.06835854 205.285548,2.984375 205.715238,2.984375 C206.457429,2.984375 207.018947,3.17480278 207.399808,3.55566406 C207.780669,3.93652534 207.971097,4.5468708 207.971097,5.38671875 L207.971097,9.65820312 L206.178128,9.65820312 L206.178128,5.83203125 C206.178128,5.35937264 206.099027,5.00488399 205.940823,4.76855469 C205.78262,4.53222538 205.533599,4.4140625 205.193753,4.4140625 C204.756251,4.4140625 204.429106,4.57031094 204.212308,4.8828125 C203.99551,5.19531406 203.887113,5.69140285 203.887113,6.37109375 L203.887113,9.65820312 Z" id="5-to-30mm" fill="#AA3311"/>
        <path d="M7.037125,42.2929688 C7.037125,43.7070383 6.65333978,44.7880822 5.88575781,45.5361328 C5.11817585,46.2841834 4.01369471,46.6582031 2.57228125,46.6582031 L0.199234375,46.6582031 L0.199234375,38.0917969 L2.82423438,38.0917969 C4.15627229,38.0917969 5.19141818,38.4609338 5.92970313,39.1992188 C6.66798807,39.9375037 7.037125,40.9687434 7.037125,42.2929688 Z M5.9824375,42.328125 C5.9824375,41.2109319 5.70216687,40.3691435 5.14161719,39.8027344 C4.58106751,39.2363253 3.74806803,38.953125 2.64259375,38.953125 L1.19532813,38.953125 L1.19532813,45.796875 L2.40821875,45.796875 C3.59572469,45.796875 4.48829389,45.5048857 5.08595313,44.9208984 C5.68361236,44.3369111 5.9824375,43.472662 5.9824375,42.328125 Z M11.5136875,46.7753906 C10.564464,46.7753906 9.81544806,46.486331 9.26661719,45.9082031 C8.71778632,45.3300752 8.443375,44.5273489 8.443375,43.5 C8.443375,42.4648386 8.69825526,41.6425812 9.20802344,41.0332031 C9.71779161,40.4238251 10.4023551,40.1191406 11.2617344,40.1191406 C12.0664259,40.1191406 12.7031383,40.3837864 13.1718906,40.9130859 C13.640643,41.4423855 13.8750156,42.1406207 13.8750156,43.0078125 L13.8750156,43.6230469 L9.4511875,43.6230469 C9.47071885,44.3769569 9.66114663,44.9492168 10.0224766,45.3398438 C10.3838065,45.7304707 10.8925905,45.9257812 11.5488438,45.9257812 C12.2402535,45.9257812 12.9238404,45.7812514 13.599625,45.4921875 L13.599625,46.359375 C13.2558733,46.5078132 12.9306812,46.6142575 12.6240391,46.6787109 C12.3173969,46.7431644 11.9472834,46.7753906 11.5136875,46.7753906 Z M11.2500156,40.9335938 C10.734388,40.9335938 10.3232593,41.1015608 10.0166172,41.4375 C9.70997503,41.7734392 9.52931277,42.2382783 9.474625,42.8320312 L12.8320469,42.8320312 C12.8320469,42.2187469 12.6953295,41.7490251 12.4218906,41.4228516 C12.1484518,41.0966781 11.7578307,40.9335938 11.2500156,40.9335938 Z M18.5215,46.7753906 C18.1035292,46.7753906 17.721697,46.698243 17.3759922,46.5439453 C17.0302873,46.3896477 16.7402512,46.1523454 16.505875,45.8320312 L16.4355625,45.8320312 C16.4824377,46.2070331 16.505875,46.5624983 16.505875,46.8984375 L16.505875,49.5410156 L15.5332188,49.5410156 L15.5332188,40.2363281 L16.3242344,40.2363281 L16.459,41.1152344 L16.505875,41.1152344 C16.7558763,40.7636701 17.046889,40.5097664 17.3789219,40.3535156 C17.7109548,40.1972648 18.0918104,40.1191406 18.5215,40.1191406 C19.3730668,40.1191406 20.0302867,40.4101533 20.4931797,40.9921875 C20.9560726,41.5742217 21.1875156,42.3906197 21.1875156,43.4414062 C21.1875156,44.496099 20.9521664,45.3154268 20.4814609,45.8994141 C20.0107555,46.4834014 19.3574417,46.7753906 18.5215,46.7753906 Z M18.380875,40.9453125 C17.7246217,40.9453125 17.2500171,41.1269513 16.9570469,41.4902344 C16.6640767,41.8535174 16.5136875,42.4316367 16.505875,43.2246094 L16.505875,43.4414062 C16.505875,44.3437545 16.6562641,44.9892559 16.9570469,45.3779297 C17.2578296,45.7666035 17.7402467,45.9609375 18.4043125,45.9609375 C18.9590028,45.9609375 19.3935687,45.7363304 19.7080234,45.2871094 C20.0224781,44.8378884 20.1797031,44.2187539 20.1797031,43.4296875 C20.1797031,42.6289022 20.0224781,42.0146506 19.7080234,41.5869141 C19.3935687,41.1591775 18.9511904,40.9453125 18.380875,40.9453125 Z M24.9585531,45.9726562 C25.130429,45.9726562 25.2964429,45.9599611 25.4566,45.9345703 C25.6167571,45.9091796 25.7437089,45.8828126 25.8374594,45.8554688 L25.8374594,46.5996094 C25.7319901,46.6503909 25.5767182,46.6923826 25.3716391,46.7255859 C25.1665599,46.7587892 24.9819914,46.7753906 24.8179281,46.7753906 C23.5757344,46.7753906 22.9546469,46.1211003 22.9546469,44.8125 L22.9546469,40.9921875 L22.034725,40.9921875 L22.034725,40.5234375 L22.9546469,40.1191406 L23.3648031,38.7480469 L23.9273031,38.7480469 L23.9273031,40.2363281 L25.7905844,40.2363281 L25.7905844,40.9921875 L23.9273031,40.9921875 L23.9273031,44.7714844 C23.9273031,45.1582051 24.0190991,45.4550771 24.2026938,45.6621094 C24.3862884,45.8691417 24.638239,45.9726562 24.9585531,45.9726562 Z M31.5151938,46.6582031 L31.5151938,42.5039062 C31.5151938,41.9804661 31.3960543,41.589845 31.1577719,41.3320312 C30.9194894,41.0742175 30.5464463,40.9453125 30.0386313,40.9453125 C29.3628466,40.9453125 28.8696875,41.1289044 28.5591391,41.4960938 C28.2485906,41.8632831 28.0933188,42.4648396 28.0933188,43.3007812 L28.0933188,46.6582031 L27.1206625,46.6582031 L27.1206625,37.5410156 L28.0933188,37.5410156 L28.0933188,40.3007812 C28.0933188,40.6328142 28.0776939,40.908202 28.0464438,41.1269531 L28.1050375,41.1269531 C28.2964447,40.8183578 28.5689029,40.5751962 28.9224203,40.3974609 C29.2759377,40.2197257 29.679254,40.1308594 30.1323813,40.1308594 C30.9175414,40.1308594 31.5064027,40.3173809 31.8989828,40.6904297 C32.2915629,41.0634784 32.48785,41.6562459 32.48785,42.46875 L32.48785,46.6582031 L31.5151938,46.6582031 Z M43.1412531,43.4414062 C43.1412531,44.4882865 42.8775839,45.3056611 42.3502375,45.8935547 C41.8228911,46.4814483 41.0943828,46.7753906 40.1646906,46.7753906 C39.590469,46.7753906 39.0807085,46.6406263 38.6353937,46.3710938 C38.190079,46.1015612 37.8463325,45.7148463 37.6041437,45.2109375 C37.361955,44.7070287 37.2408625,44.1171909 37.2408625,43.4414062 C37.2408625,42.394526 37.5025786,41.5791045 38.0260187,40.9951172 C38.5494589,40.4111299 39.2760141,40.1191406 40.2057062,40.1191406 C41.1041482,40.1191406 41.8180083,40.4179658 42.3473078,41.015625 C42.8766073,41.6132842 43.1412531,42.4218699 43.1412531,43.4414062 Z M38.248675,43.4414062 C38.248675,44.2617229 38.4127359,44.8867166 38.7408625,45.3164062 C39.0689891,45.7460959 39.5514062,45.9609375 40.1881281,45.9609375 C40.8248501,45.9609375 41.3082437,45.7470725 41.6383234,45.3193359 C41.9684032,44.8915994 42.1334406,44.2656291 42.1334406,43.4414062 C42.1334406,42.6249959 41.9684032,42.0048849 41.6383234,41.5810547 C41.3082437,41.1572244 40.8209438,40.9453125 40.1764094,40.9453125 C39.5396874,40.9453125 39.0592235,41.1542948 38.7350031,41.5722656 C38.4107828,41.9902365 38.248675,42.6132771 38.248675,43.4414062 Z M47.7408625,40.9921875 L46.1060969,40.9921875 L46.1060969,46.6582031 L45.1334406,46.6582031 L45.1334406,40.9921875 L43.9850031,40.9921875 L43.9850031,40.5527344 L45.1334406,40.2011719 L45.1334406,39.84375 C45.1334406,38.2656171 45.8228869,37.4765625 47.2018,37.4765625 C47.5416454,37.4765625 47.940079,37.5449212 48.3971125,37.6816406 L48.1451594,38.4609375 C47.7701575,38.3398431 47.4498482,38.2792969 47.1842219,38.2792969 C46.8170325,38.2792969 46.5455509,38.401366 46.3697688,38.6455078 C46.1939866,38.8896497 46.1060969,39.2812473 46.1060969,39.8203125 L46.1060969,40.2363281 L47.7408625,40.2363281 L47.7408625,40.9921875 Z M54.9208563,40.9921875 L53.2860906,40.9921875 L53.2860906,46.6582031 L52.3134344,46.6582031 L52.3134344,40.9921875 L51.1649969,40.9921875 L51.1649969,40.5527344 L52.3134344,40.2011719 L52.3134344,39.84375 C52.3134344,38.2656171 53.0028806,37.4765625 54.3817938,37.4765625 C54.7216392,37.4765625 55.1200727,37.5449212 55.5771063,37.6816406 L55.3251531,38.4609375 C54.9501513,38.3398431 54.629842,38.2792969 54.3642156,38.2792969 C53.9970263,38.2792969 53.7255446,38.401366 53.5497625,38.6455078 C53.3739804,38.8896497 53.2860906,39.2812473 53.2860906,39.8203125 L53.2860906,40.2363281 L54.9208563,40.2363281 L54.9208563,40.9921875 Z M57.0653875,46.6582031 L56.0927313,46.6582031 L56.0927313,40.2363281 L57.0653875,40.2363281 L57.0653875,46.6582031 Z M56.0107,38.4960938 C56.0107,38.2734364 56.065387,38.1103521 56.1747625,38.0068359 C56.284138,37.9033198 56.4208554,37.8515625 56.5849187,37.8515625 C56.7411695,37.8515625 56.8759338,37.9042963 56.9892156,38.0097656 C57.1024974,38.1152349 57.1591375,38.2773427 57.1591375,38.4960938 C57.1591375,38.7148448 57.1024974,38.8779292 56.9892156,38.9853516 C56.8759338,39.092774 56.7411695,39.1464844 56.5849187,39.1464844 C56.4208554,39.1464844 56.284138,39.092774 56.1747625,38.9853516 C56.065387,38.8779292 56.0107,38.7148448 56.0107,38.4960938 Z M61.8395781,46.7753906 C60.8903546,46.7753906 60.1413387,46.486331 59.5925078,45.9082031 C59.0436769,45.3300752 58.7692656,44.5273489 58.7692656,43.5 C58.7692656,42.4648386 59.0241459,41.6425812 59.5339141,41.0332031 C60.0436822,40.4238251 60.7282457,40.1191406 61.587625,40.1191406 C62.3923165,40.1191406 63.0290289,40.3837864 63.4977812,40.9130859 C63.9665336,41.4423855 64.2009063,42.1406207 64.2009063,43.0078125 L64.2009063,43.6230469 L59.7770781,43.6230469 C59.7966095,44.3769569 59.9870373,44.9492168 60.3483672,45.3398438 C60.7096971,45.7304707 61.2184811,45.9257812 61.8747344,45.9257812 C62.5661441,45.9257812 63.249731,45.7812514 63.9255156,45.4921875 L63.9255156,46.359375 C63.5817639,46.5078132 63.2565718,46.6142575 62.9499297,46.6787109 C62.6432875,46.7431644 62.273174,46.7753906 61.8395781,46.7753906 Z M61.5759063,40.9335938 C61.0602787,40.9335938 60.64915,41.1015608 60.3425078,41.4375 C60.0358657,41.7734392 59.8552034,42.2382783 59.8005156,42.8320312 L63.1579375,42.8320312 C63.1579375,42.2187469 63.0212201,41.7490251 62.7477813,41.4228516 C62.4743424,41.0966781 62.0837213,40.9335938 61.5759063,40.9335938 Z M66.8317656,46.6582031 L65.8591094,46.6582031 L65.8591094,37.5410156 L66.8317656,37.5410156 L66.8317656,46.6582031 Z M73.2641594,45.796875 L73.211425,45.796875 C72.762204,46.449222 72.0903357,46.7753906 71.1958,46.7753906 C70.3559521,46.7753906 69.7026383,46.4882841 69.2358391,45.9140625 C68.7690399,45.3398409 68.5356438,44.5234428 68.5356438,43.4648438 C68.5356438,42.4062447 68.7700164,41.5839873 69.2387688,40.9980469 C69.7075211,40.4121064 70.3598583,40.1191406 71.1958,40.1191406 C72.0668981,40.1191406 72.7348602,40.4355437 73.1997063,41.0683594 L73.2758781,41.0683594 L73.2348625,40.6054688 L73.211425,40.1542969 L73.211425,37.5410156 L74.1840813,37.5410156 L74.1840813,46.6582031 L73.3930656,46.6582031 L73.2641594,45.796875 Z M71.3188469,45.9609375 C71.9829127,45.9609375 72.4643532,45.7802752 72.7631828,45.4189453 C73.0620124,45.0576154 73.211425,44.4746134 73.211425,43.6699219 L73.211425,43.4648438 C73.211425,42.5546829 73.0600593,41.9052754 72.7573234,41.5166016 C72.4545875,41.1279277 71.9711939,40.9335938 71.3071281,40.9335938 C70.7368128,40.9335938 70.3002937,41.1552712 69.9975578,41.5986328 C69.6948219,42.0419944 69.5434563,42.6679647 69.5434563,43.4765625 C69.5434563,44.2968791 69.6938454,44.9160135 69.9946281,45.3339844 C70.2954109,45.7519552 70.7368127,45.9609375 71.3188469,45.9609375 Z" id="Depth-of-field" fill="#292E31"/>
        <path d="M111.390625,44.8378906 C111.390625,45.5918006 111.11719,46.1796854 110.570312,46.6015625 C110.023435,47.0234396 109.281255,47.234375 108.34375,47.234375 C107.32812,47.234375 106.546878,47.1035169 106,46.8417969 L106,45.8808594 C106.351564,46.0292976 106.734373,46.1464839 107.148438,46.2324219 C107.562502,46.3183598 107.972654,46.3613281 108.378906,46.3613281 C109.042972,46.3613281 109.542967,46.2353528 109.878906,45.9833984 C110.214845,45.7314441 110.382812,45.3808616 110.382812,44.9316406 C110.382812,44.6347641 110.323243,44.3916025 110.204102,44.2021484 C110.08496,44.0126944 109.885744,43.8378914 109.606445,43.6777344 C109.327147,43.5175773 108.902347,43.3359385 108.332031,43.1328125 C107.535152,42.8476548 106.965822,42.5097676 106.624023,42.1191406 C106.282225,41.7285137 106.111328,41.2187531 106.111328,40.5898438 C106.111328,39.9296842 106.359373,39.4042988 106.855469,39.0136719 C107.351565,38.6230449 108.007808,38.4277344 108.824219,38.4277344 C109.675786,38.4277344 110.458981,38.5839828 111.173828,38.8964844 L110.863281,39.7636719 C110.156246,39.4667954 109.468753,39.3183594 108.800781,39.3183594 C108.273435,39.3183594 107.86133,39.4316395 107.564453,39.6582031 C107.267577,39.8847668 107.119141,40.1992167 107.119141,40.6015625 C107.119141,40.898439 107.173828,41.1416006 107.283203,41.3310547 C107.392579,41.5205088 107.577147,41.6943351 107.836914,41.8525391 C108.096681,42.010743 108.494138,42.1855459 109.029297,42.3769531 C109.927739,42.6972672 110.545897,43.0410138 110.883789,43.4082031 C111.221681,43.7753925 111.390625,44.2519502 111.390625,44.8378906 Z M117.388225,47.1171875 L117.388225,42.9628906 C117.388225,42.4394505 117.269086,42.0488294 117.030803,41.7910156 C116.792521,41.5332018 116.419478,41.4042969 115.911663,41.4042969 C115.235878,41.4042969 114.742719,41.5878888 114.43217,41.9550781 C114.121622,42.3222675 113.96635,42.9238239 113.96635,43.7597656 L113.96635,47.1171875 L112.993694,47.1171875 L112.993694,38 L113.96635,38 L113.96635,40.7597656 C113.96635,41.0917985 113.950725,41.3671864 113.919475,41.5859375 L113.978069,41.5859375 C114.169476,41.2773422 114.441934,41.0341806 114.795452,40.8564453 C115.148969,40.67871 115.552285,40.5898438 116.005413,40.5898438 C116.790573,40.5898438 117.379434,40.7763653 117.772014,41.1494141 C118.164594,41.5224628 118.360881,42.1152303 118.360881,42.9277344 L118.360881,47.1171875 L117.388225,47.1171875 Z M124.305747,47.1171875 L124.112387,46.203125 L124.065512,46.203125 C123.745198,46.6054708 123.425866,46.877929 123.107505,47.0205078 C122.789144,47.1630867 122.391687,47.234375 121.915122,47.234375 C121.2784,47.234375 120.779381,47.0703141 120.418052,46.7421875 C120.056722,46.4140609 119.876059,45.9472687 119.876059,45.3417969 C119.876059,44.0449154 120.913158,43.3652347 122.987387,43.3027344 L124.077231,43.2675781 L124.077231,42.8691406 C124.077231,42.3652319 123.968834,41.9931653 123.752036,41.7529297 C123.535238,41.5126941 123.188562,41.3925781 122.711997,41.3925781 C122.176838,41.3925781 121.571375,41.556639 120.895591,41.8847656 L120.596762,41.140625 C120.91317,40.9687491 121.259847,40.8339849 121.636802,40.7363281 C122.013757,40.6386714 122.391682,40.5898438 122.770591,40.5898438 C123.536219,40.5898438 124.103597,40.7597639 124.472739,41.0996094 C124.841882,41.4394548 125.02645,41.9843712 125.02645,42.734375 L125.02645,47.1171875 L124.305747,47.1171875 Z M122.108481,46.4316406 C122.713953,46.4316406 123.189534,46.2656267 123.535239,45.9335938 C123.880944,45.6015608 124.053794,45.1367217 124.053794,44.5390625 L124.053794,43.9589844 L123.081137,44 C122.307696,44.0273439 121.750085,44.1474599 121.408286,44.3603516 C121.066487,44.5732433 120.895591,44.9042946 120.895591,45.3535156 C120.895591,45.7050799 121.002035,45.9726553 121.214927,46.15625 C121.427818,46.3398447 121.725667,46.4316406 122.108481,46.4316406 Z M128.005413,47.1171875 L127.032756,47.1171875 L127.032756,38 L128.005413,38 L128.005413,47.1171875 Z M131.039369,47.1171875 L130.066712,47.1171875 L130.066712,38 L131.039369,38 L131.039369,47.1171875 Z M138.643638,43.9003906 C138.643638,44.9472709 138.379968,45.7646455 137.852622,46.3525391 C137.325275,46.9404326 136.596767,47.234375 135.667075,47.234375 C135.092853,47.234375 134.583093,47.0996107 134.137778,46.8300781 C133.692463,46.5605455 133.348717,46.1738306 133.106528,45.6699219 C132.864339,45.1660131 132.743247,44.5761753 132.743247,43.9003906 C132.743247,42.8535104 133.004963,42.0380889 133.528403,41.4541016 C134.051843,40.8701143 134.778398,40.578125 135.708091,40.578125 C136.606533,40.578125 137.320393,40.8769501 137.849692,41.4746094 C138.378992,42.0722686 138.643638,42.8808543 138.643638,43.9003906 Z M133.751059,43.9003906 C133.751059,44.7207072 133.91512,45.345701 134.243247,45.7753906 C134.571374,46.2050803 135.053791,46.4199219 135.690513,46.4199219 C136.327234,46.4199219 136.810628,46.2060568 137.140708,45.7783203 C137.470788,45.3505838 137.635825,44.7246135 137.635825,43.9003906 C137.635825,43.0839803 137.470788,42.4638693 137.140708,42.0400391 C136.810628,41.6162088 136.323328,41.4042969 135.678794,41.4042969 C135.042072,41.4042969 134.561608,41.6132792 134.237388,42.03125 C133.913167,42.4492208 133.751059,43.0722615 133.751059,43.9003906 Z M145.352622,47.1171875 L144.174888,43.3496094 C144.100668,43.1191395 143.961998,42.5957072 143.758872,41.7792969 L143.711997,41.7792969 C143.555746,42.462894 143.419029,42.9902325 143.301841,43.3613281 L142.08895,47.1171875 L140.96395,47.1171875 L139.211997,40.6953125 L140.231528,40.6953125 C140.645593,42.3086018 140.961019,43.5371052 141.177817,44.3808594 C141.394615,45.2246136 141.518637,45.7929673 141.549888,46.0859375 L141.596763,46.0859375 C141.639731,45.8632801 141.709067,45.5751971 141.80477,45.2216797 C141.900474,44.8681623 141.983481,44.5878917 142.053794,44.3808594 L143.231528,40.6953125 L144.286216,40.6953125 L145.434653,44.3808594 C145.653404,45.0527377 145.80184,45.6171852 145.879966,46.0742188 L145.926841,46.0742188 C145.942466,45.933593 145.984457,45.7167983 146.052817,45.4238281 C146.121177,45.1308579 146.528399,43.5547018 147.274497,40.6953125 L148.282309,40.6953125 L146.506919,47.1171875 L145.352622,47.1171875 Z" id="Shallow-" fill="#292E31"/>
        <path d="M151.901388,44.8867188 L151.901388,43.9960938 L154.778341,43.9960938 L154.778341,44.8867188 L151.901388,44.8867188 Z M155.762516,44.8867188 L155.762516,43.9960938 L158.639469,43.9960938 L158.639469,44.8867188 L155.762516,44.8867188 Z M159.623644,44.8867188 L159.623644,43.9960938 L162.500597,43.9960938 L162.500597,44.8867188 L159.623644,44.8867188 Z M163.484772,44.8867188 L163.484772,43.9960938 L166.361725,43.9960938 L166.361725,44.8867188 L163.484772,44.8867188 Z M167.3459,44.8867188 L167.3459,43.9960938 L170.222853,43.9960938 L170.222853,44.8867188 L167.3459,44.8867188 Z M171.207028,44.8867188 L171.207028,43.9960938 L174.083981,43.9960938 L174.083981,44.8867188 L171.207028,44.8867188 Z M175.068156,44.8867188 L175.068156,43.9960938 L177.945109,43.9960938 L177.945109,44.8867188 L175.068156,44.8867188 Z M178.929284,44.8867188 L178.929284,43.9960938 L181.806238,43.9960938 L181.806238,44.8867188 L178.929284,44.8867188 Z M182.790413,44.8867188 L182.790413,43.9960938 L185.667366,43.9960938 L185.667366,44.8867188 L182.790413,44.8867188 Z M186.651541,44.8867188 L186.651541,43.9960938 L189.528494,43.9960938 L189.528494,44.8867188 L186.651541,44.8867188 Z M190.512669,44.8867188 L190.512669,43.9960938 L193.389622,43.9960938 L193.389622,44.8867188 L190.512669,44.8867188 Z M194.373797,44.8867188 L194.373797,43.9960938 L197.25075,43.9960938 L197.25075,44.8867188 L194.373797,44.8867188 Z M198.234925,44.8867188 L198.234925,43.9960938 L201.111878,43.9960938 L201.111878,44.8867188 L198.234925,44.8867188 Z M202.096053,44.8867188 L202.096053,43.9960938 L204.973006,43.9960938 L204.973006,44.8867188 L202.096053,44.8867188 Z M205.957181,44.8867188 L205.957181,43.9960938 L208.834134,43.9960938 L208.834134,44.8867188 L205.957181,44.8867188 Z M209.818309,44.8867188 L209.818309,43.9960938 L212.695263,43.9960938 L212.695263,44.8867188 L209.818309,44.8867188 Z M213.679438,44.8867188 L213.679438,43.9960938 L216.556391,43.9960938 L216.556391,44.8867188 L213.679438,44.8867188 Z" id="-----------------" fill="#292E31"/>
        <path d="M227.837891,43.2011719 C227.837891,44.6152414 227.454105,45.6962853 226.686523,46.4443359 C225.918941,47.1923866 224.81446,47.5664062 223.373047,47.5664062 L221,47.5664062 L221,39 L223.625,39 C224.957038,39 225.992184,39.3691369 226.730469,40.1074219 C227.468754,40.8457068 227.837891,41.8769465 227.837891,43.2011719 Z M226.783203,43.2363281 C226.783203,42.119135 226.502932,41.2773466 225.942383,40.7109375 C225.381833,40.1445284 224.548834,39.8613281 223.443359,39.8613281 L221.996094,39.8613281 L221.996094,46.7050781 L223.208984,46.7050781 C224.39649,46.7050781 225.28906,46.4130889 225.886719,45.8291016 C226.484378,45.2451143 226.783203,44.3808651 226.783203,43.2363281 Z M232.314453,47.6835938 C231.36523,47.6835938 230.616214,47.3945341 230.067383,46.8164062 C229.518552,46.2382784 229.244141,45.435552 229.244141,44.4082031 C229.244141,43.3730417 229.499021,42.5507843 230.008789,41.9414062 C230.518557,41.3320282 231.203121,41.0273438 232.0625,41.0273438 C232.867192,41.0273438 233.503904,41.2919895 233.972656,41.8212891 C234.441409,42.3505886 234.675781,43.0488238 234.675781,43.9160156 L234.675781,44.53125 L230.251953,44.53125 C230.271484,45.28516 230.461912,45.8574199 230.823242,46.2480469 C231.184572,46.6386738 231.693356,46.8339844 232.349609,46.8339844 C233.041019,46.8339844 233.724606,46.6894546 234.400391,46.4003906 L234.400391,47.2675781 C234.056639,47.4160164 233.731447,47.5224606 233.424805,47.5869141 C233.118163,47.6513675 232.748049,47.6835938 232.314453,47.6835938 Z M232.050781,41.8417969 C231.535154,41.8417969 231.124025,42.0097639 230.817383,42.3457031 C230.510741,42.6816423 230.330078,43.1464814 230.275391,43.7402344 L233.632812,43.7402344 C233.632812,43.1269501 233.496095,42.6572282 233.222656,42.3310547 C232.949217,42.0048812 232.558596,41.8417969 232.050781,41.8417969 Z M239.046875,47.6835938 C238.097652,47.6835938 237.348636,47.3945341 236.799805,46.8164062 C236.250974,46.2382784 235.976562,45.435552 235.976562,44.4082031 C235.976562,43.3730417 236.231443,42.5507843 236.741211,41.9414062 C237.250979,41.3320282 237.935543,41.0273438 238.794922,41.0273438 C239.599613,41.0273438 240.236326,41.2919895 240.705078,41.8212891 C241.17383,42.3505886 241.408203,43.0488238 241.408203,43.9160156 L241.408203,44.53125 L236.984375,44.53125 C237.003906,45.28516 237.194334,45.8574199 237.555664,46.2480469 C237.916994,46.6386738 238.425778,46.8339844 239.082031,46.8339844 C239.773441,46.8339844 240.457028,46.6894546 241.132812,46.4003906 L241.132812,47.2675781 C240.789061,47.4160164 240.463869,47.5224606 240.157227,47.5869141 C239.850584,47.6513675 239.480471,47.6835938 239.046875,47.6835938 Z M238.783203,41.8417969 C238.267576,41.8417969 237.856447,42.0097639 237.549805,42.3457031 C237.243163,42.6816423 237.0625,43.1464814 237.007812,43.7402344 L240.365234,43.7402344 C240.365234,43.1269501 240.228517,42.6572282 239.955078,42.3310547 C239.681639,42.0048812 239.291018,41.8417969 238.783203,41.8417969 Z M246.054688,47.6835938 C245.636717,47.6835938 245.254885,47.6064461 244.90918,47.4521484 C244.563475,47.2978508 244.273439,47.0605485 244.039062,46.7402344 L243.96875,46.7402344 C244.015625,47.1152362 244.039062,47.4707014 244.039062,47.8066406 L244.039062,50.4492188 L243.066406,50.4492188 L243.066406,41.1445312 L243.857422,41.1445312 L243.992188,42.0234375 L244.039062,42.0234375 C244.289064,41.6718732 244.580076,41.4179695 244.912109,41.2617188 C245.244142,41.105468 245.624998,41.0273438 246.054688,41.0273438 C246.906254,41.0273438 247.563474,41.3183565 248.026367,41.9003906 C248.48926,42.4824248 248.720703,43.2988229 248.720703,44.3496094 C248.720703,45.4043021 248.485354,46.2236299 248.014648,46.8076172 C247.543943,47.3916045 246.890629,47.6835938 246.054688,47.6835938 Z M245.914062,41.8535156 C245.257809,41.8535156 244.783205,42.0351544 244.490234,42.3984375 C244.197264,42.7617206 244.046875,43.3398398 244.039062,44.1328125 L244.039062,44.3496094 C244.039062,45.2519576 244.189452,45.897459 244.490234,46.2861328 C244.791017,46.6748066 245.273434,46.8691406 245.9375,46.8691406 C246.49219,46.8691406 246.926756,46.6445335 247.241211,46.1953125 C247.555666,45.7460915 247.712891,45.1269571 247.712891,44.3378906 C247.712891,43.5371054 247.555666,42.9228537 247.241211,42.4951172 C246.926756,42.0673807 246.484378,41.8535156 245.914062,41.8535156 Z" id="Deep" fill="#292E31"/>
        <path d="M9.59472813,79.0957031 L9.59472813,82.6582031 L8.59863438,82.6582031 L8.59863438,74.0917969 L10.9482438,74.0917969 C11.9990303,74.0917969 12.7753897,74.2929667 13.2773453,74.6953125 C13.7793009,75.0976583 14.030275,75.703121 14.030275,76.5117188 C14.030275,77.6445369 13.456062,78.4101543 12.3076188,78.8085938 L14.6337906,82.6582031 L13.4560563,82.6582031 L11.3818375,79.0957031 L9.59472813,79.0957031 Z M9.59472813,78.2402344 L10.9599625,78.2402344 C11.663091,78.2402344 12.1787109,78.1005873 12.5068375,77.8212891 C12.8349641,77.5419908 12.999025,77.1230497 12.999025,76.5644531 C12.999025,75.998044 12.8320345,75.589845 12.4980484,75.3398438 C12.1640624,75.0898425 11.6279349,74.9648438 10.88965,74.9648438 L9.59472813,74.9648438 L9.59472813,78.2402344 Z M18.5854094,82.7753906 C17.6361859,82.7753906 16.8871699,82.486331 16.3383391,81.9082031 C15.7895082,81.3300752 15.5150969,80.5273489 15.5150969,79.5 C15.5150969,78.4648386 15.7699771,77.6425812 16.2797453,77.0332031 C16.7895135,76.4238251 17.474077,76.1191406 18.3334563,76.1191406 C19.1381478,76.1191406 19.7748602,76.3837864 20.2436125,76.9130859 C20.7123648,77.4423855 20.9467375,78.1406207 20.9467375,79.0078125 L20.9467375,79.6230469 L16.5229094,79.6230469 C16.5424407,80.3769569 16.7328685,80.9492168 17.0941984,81.3398438 C17.4555284,81.7304707 17.9643123,81.9257812 18.6205656,81.9257812 C19.3119753,81.9257812 19.9955622,81.7812514 20.6713469,81.4921875 L20.6713469,82.359375 C20.3275952,82.5078132 20.0024031,82.6142575 19.6957609,82.6787109 C19.3891188,82.7431644 19.0190053,82.7753906 18.5854094,82.7753906 Z M18.3217375,76.9335938 C17.8061099,76.9335938 17.3949812,77.1015608 17.0883391,77.4375 C16.7816969,77.7734392 16.6010346,78.2382783 16.5463469,78.8320312 L19.9037688,78.8320312 C19.9037688,78.2187469 19.7670514,77.7490251 19.4936125,77.4228516 C19.2201736,77.0966781 18.8295525,76.9335938 18.3217375,76.9335938 Z M26.7475188,80.90625 C26.7475188,81.5039092 26.5248647,81.9648421 26.07955,82.2890625 C25.6342353,82.6132829 25.0092415,82.7753906 24.20455,82.7753906 C23.3529832,82.7753906 22.6889274,82.6406263 22.2123625,82.3710938 L22.2123625,81.46875 C22.5209578,81.6250008 22.8520092,81.7480464 23.2055266,81.8378906 C23.559044,81.9277348 23.8998609,81.9726562 24.2279875,81.9726562 C24.7358025,81.9726562 25.1264236,81.8916024 25.3998625,81.7294922 C25.6733014,81.567382 25.8100188,81.3203142 25.8100188,80.9882812 C25.8100188,80.73828 25.7016214,80.524415 25.4848234,80.3466797 C25.2680255,80.1689444 24.8451781,79.9589856 24.2162688,79.7167969 C23.6186095,79.4941395 23.1938091,79.2998055 22.9418547,79.1337891 C22.6899003,78.9677726 22.5024022,78.7792979 22.3793547,78.5683594 C22.2563072,78.3574208 22.1947844,78.1054702 22.1947844,77.8125 C22.1947844,77.2890599 22.4076729,76.8759781 22.8334563,76.5732422 C23.2592396,76.2705063 23.8432182,76.1191406 24.5854094,76.1191406 C25.2768191,76.1191406 25.9525936,76.2597642 26.6127531,76.5410156 L26.26705,77.3320312 C25.6225155,77.0664049 25.038537,76.9335938 24.5150969,76.9335938 C24.0541571,76.9335938 23.7065043,77.0058587 23.4721281,77.1503906 C23.237752,77.2949226 23.1205656,77.4941394 23.1205656,77.7480469 C23.1205656,77.9199227 23.1645105,78.0664056 23.2524016,78.1875 C23.3402926,78.3085944 23.4818928,78.4238276 23.6772063,78.5332031 C23.8725197,78.6425787 24.247516,78.8007802 24.8022063,79.0078125 C25.5639288,79.2851576 26.0785721,79.5644517 26.3461516,79.8457031 C26.613731,80.1269545 26.7475188,80.4804666 26.7475188,80.90625 Z M33.8737188,79.4414062 C33.8737188,80.4882865 33.6100495,81.3056611 33.0827031,81.8935547 C32.5553567,82.4814483 31.8268484,82.7753906 30.8971563,82.7753906 C30.3229346,82.7753906 29.8131741,82.6406263 29.3678594,82.3710938 C28.9225446,82.1015612 28.5787981,81.7148463 28.3366094,81.2109375 C28.0944207,80.7070287 27.9733281,80.1171909 27.9733281,79.4414062 C27.9733281,78.394526 28.2350443,77.5791045 28.7584844,76.9951172 C29.2819245,76.4111299 30.0084797,76.1191406 30.9381719,76.1191406 C31.8366139,76.1191406 32.5504739,76.4179658 33.0797734,77.015625 C33.609073,77.6132842 33.8737188,78.4218699 33.8737188,79.4414062 Z M28.9811406,79.4414062 C28.9811406,80.2617229 29.1452015,80.8867166 29.4733281,81.3164062 C29.8014548,81.7460959 30.2838718,81.9609375 30.9205938,81.9609375 C31.5573157,81.9609375 32.0407093,81.7470725 32.3707891,81.3193359 C32.7008688,80.8915994 32.8659063,80.2656291 32.8659063,79.4414062 C32.8659063,78.6249959 32.7008688,78.0048849 32.3707891,77.5810547 C32.0407093,77.1572244 31.5534095,76.9453125 30.908875,76.9453125 C30.2721531,76.9453125 29.7916891,77.1542948 29.4674688,77.5722656 C29.1432484,77.9902365 28.9811406,78.6132771 28.9811406,79.4414062 Z M36.5514531,82.6582031 L35.5787969,82.6582031 L35.5787969,73.5410156 L36.5514531,73.5410156 L36.5514531,82.6582031 Z M39.5268156,76.2363281 L39.5268156,80.4023438 C39.5268156,80.9257839 39.6459551,81.316405 39.8842375,81.5742188 C40.1225199,81.8320325 40.4955631,81.9609375 41.0033781,81.9609375 C41.6752565,81.9609375 42.1664625,81.7773456 42.4770109,81.4101562 C42.7875594,81.0429669 42.9428313,80.4433635 42.9428313,79.6113281 L42.9428313,76.2363281 L43.9154875,76.2363281 L43.9154875,82.6582031 L43.1127531,82.6582031 L42.9721281,81.796875 L42.9193938,81.796875 C42.720174,82.1132828 42.4438096,82.3554679 42.0902922,82.5234375 C41.7367748,82.6914071 41.3334585,82.7753906 40.8803313,82.7753906 C40.0990773,82.7753906 39.5141223,82.5898456 39.1254484,82.21875 C38.7367746,81.8476544 38.5424406,81.2539103 38.5424406,80.4375 L38.5424406,76.2363281 L39.5268156,76.2363281 Z M48.0498063,81.9726562 C48.2216821,81.9726562 48.3876961,81.9599611 48.5478531,81.9345703 C48.7080102,81.9091796 48.834962,81.8828126 48.9287125,81.8554688 L48.9287125,82.5996094 C48.8232432,82.6503909 48.6679713,82.6923826 48.4628922,82.7255859 C48.257813,82.7587892 48.0732446,82.7753906 47.9091813,82.7753906 C46.6669875,82.7753906 46.0459,82.1211003 46.0459,80.8125 L46.0459,76.9921875 L45.1259781,76.9921875 L45.1259781,76.5234375 L46.0459,76.1191406 L46.4560563,74.7480469 L47.0185563,74.7480469 L47.0185563,76.2363281 L48.8818375,76.2363281 L48.8818375,76.9921875 L47.0185563,76.9921875 L47.0185563,80.7714844 C47.0185563,81.1582051 47.1103522,81.4550771 47.2939469,81.6621094 C47.4775415,81.8691417 47.7294921,81.9726562 48.0498063,81.9726562 Z M51.1845719,82.6582031 L50.2119156,82.6582031 L50.2119156,76.2363281 L51.1845719,76.2363281 L51.1845719,82.6582031 Z M50.1298844,74.4960938 C50.1298844,74.2734364 50.1845713,74.1103521 50.2939469,74.0068359 C50.4033224,73.9033198 50.5400398,73.8515625 50.7041031,73.8515625 C50.8603539,73.8515625 50.9951182,73.9042963 51.1084,74.0097656 C51.2216818,74.1152349 51.2783219,74.2773427 51.2783219,74.4960938 C51.2783219,74.7148448 51.2216818,74.8779292 51.1084,74.9853516 C50.9951182,75.092774 50.8603539,75.1464844 50.7041031,75.1464844 C50.5400398,75.1464844 50.4033224,75.092774 50.2939469,74.9853516 C50.1845713,74.8779292 50.1298844,74.7148448 50.1298844,74.4960938 Z M58.7888406,79.4414062 C58.7888406,80.4882865 58.5251714,81.3056611 57.997825,81.8935547 C57.4704786,82.4814483 56.7419703,82.7753906 55.8122781,82.7753906 C55.2380565,82.7753906 54.728296,82.6406263 54.2829813,82.3710938 C53.8376665,82.1015612 53.49392,81.7148463 53.2517313,81.2109375 C53.0095425,80.7070287 52.88845,80.1171909 52.88845,79.4414062 C52.88845,78.394526 53.1501661,77.5791045 53.6736063,76.9951172 C54.1970464,76.4111299 54.9236016,76.1191406 55.8532938,76.1191406 C56.7517357,76.1191406 57.4655958,76.4179658 57.9948953,77.015625 C58.5241948,77.6132842 58.7888406,78.4218699 58.7888406,79.4414062 Z M53.8962625,79.4414062 C53.8962625,80.2617229 54.0603234,80.8867166 54.38845,81.3164062 C54.7165766,81.7460959 55.1989937,81.9609375 55.8357156,81.9609375 C56.4724376,81.9609375 56.9558312,81.7470725 57.2859109,81.3193359 C57.6159907,80.8915994 57.7810281,80.2656291 57.7810281,79.4414062 C57.7810281,78.6249959 57.6159907,78.0048849 57.2859109,77.5810547 C56.9558312,77.1572244 56.4685313,76.9453125 55.8239969,76.9453125 C55.1872749,76.9453125 54.706811,77.1542948 54.3825906,77.5722656 C54.0583703,77.9902365 53.8962625,78.6132771 53.8962625,79.4414062 Z M64.88845,82.6582031 L64.88845,78.5039062 C64.88845,77.9804661 64.7693106,77.589845 64.5310281,77.3320312 C64.2927457,77.0742175 63.9197025,76.9453125 63.4118875,76.9453125 C62.7400091,76.9453125 62.2478266,77.1269513 61.935325,77.4902344 C61.6228234,77.8535174 61.466575,78.4531208 61.466575,79.2890625 L61.466575,82.6582031 L60.4939188,82.6582031 L60.4939188,76.2363281 L61.2849344,76.2363281 L61.4431375,77.1152344 L61.4900125,77.1152344 C61.6892322,76.7988265 61.9685263,76.5537118 62.3279031,76.3798828 C62.6872799,76.2060538 63.0876665,76.1191406 63.529075,76.1191406 C64.3025164,76.1191406 64.8845418,76.3056622 65.2751688,76.6787109 C65.6657957,77.0517597 65.8611063,77.6484334 65.8611063,78.46875 L65.8611063,82.6582031 L64.88845,82.6582031 Z" id="Resolution" fill="#292E31"/>
        <path d="M121.503906,83.1171875 L120.507812,83.1171875 L120.507812,79.0859375 L115.996094,79.0859375 L115.996094,83.1171875 L115,83.1171875 L115,74.5507812 L115.996094,74.5507812 L115.996094,78.1953125 L120.507812,78.1953125 L120.507812,74.5507812 L121.503906,74.5507812 L121.503906,83.1171875 Z M124.679487,83.1171875 L123.706831,83.1171875 L123.706831,76.6953125 L124.679487,76.6953125 L124.679487,83.1171875 Z M123.6248,74.9550781 C123.6248,74.7324208 123.679487,74.5693365 123.788862,74.4658203 C123.898238,74.3623042 124.034955,74.3105469 124.199019,74.3105469 C124.35527,74.3105469 124.490034,74.3632807 124.603316,74.46875 C124.716597,74.5742193 124.773237,74.736327 124.773237,74.9550781 C124.773237,75.1738292 124.716597,75.3369135 124.603316,75.4443359 C124.490034,75.5517583 124.35527,75.6054688 124.199019,75.6054688 C124.034955,75.6054688 123.898238,75.5517583 123.788862,75.4443359 C123.679487,75.3369135 123.6248,75.1738292 123.6248,74.9550781 Z M131.997647,76.6953125 L131.997647,77.3105469 L130.808194,77.4511719 C130.917569,77.5878913 131.015225,77.7666005 131.101162,77.9873047 C131.1871,78.2080089 131.230069,78.4570299 131.230069,78.734375 C131.230069,79.3632844 131.015227,79.8652325 130.585537,80.2402344 C130.155848,80.6152362 129.56601,80.8027344 128.816006,80.8027344 C128.624599,80.8027344 128.444913,80.7871095 128.276944,80.7558594 C127.862879,80.9746105 127.65585,81.2499983 127.65585,81.5820312 C127.65585,81.7578134 127.728115,81.8876949 127.872647,81.9716797 C128.017179,82.0556645 128.265223,82.0976562 128.616787,82.0976562 L129.753506,82.0976562 C130.448822,82.0976562 130.982997,82.2441392 131.356045,82.5371094 C131.729094,82.8300796 131.915616,83.2558566 131.915616,83.8144531 C131.915616,84.5253942 131.630462,85.0673809 131.060147,85.4404297 C130.489832,85.8134784 129.657809,86 128.564053,86 C127.724205,86 127.076751,85.8437516 126.62167,85.53125 C126.16659,85.2187484 125.939053,84.7773466 125.939053,84.2070312 C125.939053,83.8164043 126.064052,83.4785171 126.314053,83.1933594 C126.564054,82.9082017 126.915613,82.7148443 127.368741,82.6132812 C127.204677,82.5390621 127.066983,82.4238289 126.955655,82.2675781 C126.844326,82.1113273 126.788663,81.9296885 126.788663,81.7226562 C126.788663,81.4882801 126.851162,81.283204 126.976163,81.1074219 C127.101163,80.9316397 127.298427,80.7617196 127.567959,80.5976562 C127.235926,80.4609368 126.965421,80.2285173 126.756436,79.9003906 C126.547451,79.572264 126.442959,79.1972677 126.442959,78.7753906 C126.442959,78.0722621 126.653895,77.5302753 127.075772,77.1494141 C127.497649,76.7685528 128.095299,76.578125 128.868741,76.578125 C129.20468,76.578125 129.507411,76.6171871 129.776944,76.6953125 L131.997647,76.6953125 Z M126.876553,84.1953125 C126.876553,84.5429705 127.023036,84.8066397 127.316006,84.9863281 C127.608976,85.1660165 128.028894,85.2558594 128.575772,85.2558594 C129.392182,85.2558594 129.996668,85.1337903 130.389248,84.8896484 C130.781829,84.6455066 130.978116,84.3144552 130.978116,83.8964844 C130.978116,83.5488264 130.870695,83.3076179 130.65585,83.1728516 C130.441005,83.0380853 130.036712,82.9707031 129.442959,82.9707031 L128.276944,82.9707031 C127.835535,82.9707031 127.491789,83.0761708 127.245694,83.2871094 C126.999599,83.4980479 126.876553,83.8007793 126.876553,84.1953125 Z M127.403897,78.7519531 C127.403897,79.2011741 127.530849,79.5410145 127.784756,79.7714844 C128.038664,80.0019543 128.392176,80.1171875 128.845303,80.1171875 C129.794527,80.1171875 130.269131,79.6562546 130.269131,78.734375 C130.269131,77.7695264 129.788667,77.2871094 128.827725,77.2871094 C128.370691,77.2871094 128.019132,77.410155 127.773038,77.65625 C127.526943,77.902345 127.403897,78.2675757 127.403897,78.7519531 Z M137.710338,83.1171875 L137.710338,78.9628906 C137.710338,78.4394505 137.591198,78.0488294 137.352916,77.7910156 C137.114633,77.5332018 136.74159,77.4042969 136.233775,77.4042969 C135.55799,77.4042969 135.064831,77.5878888 134.754283,77.9550781 C134.443734,78.3222675 134.288463,78.9238239 134.288463,79.7597656 L134.288463,83.1171875 L133.315806,83.1171875 L133.315806,74 L134.288463,74 L134.288463,76.7597656 C134.288463,77.0917985 134.272838,77.3671864 134.241588,77.5859375 L134.300181,77.5859375 C134.491588,77.2773422 134.764047,77.0341806 135.117564,76.8564453 C135.471081,76.67871 135.874398,76.5898438 136.327525,76.5898438 C137.112685,76.5898438 137.701546,76.7763653 138.094127,77.1494141 C138.486707,77.5224628 138.682994,78.1152303 138.682994,78.9277344 L138.682994,83.1171875 L137.710338,83.1171875 Z" id="High-" fill="#292E31"/>
        <path d="M143.692944,79.8867188 L143.692944,78.9960938 L146.569897,78.9960938 L146.569897,79.8867188 L143.692944,79.8867188 Z M147.554072,79.8867188 L147.554072,78.9960938 L150.431025,78.9960938 L150.431025,79.8867188 L147.554072,79.8867188 Z M151.4152,79.8867188 L151.4152,78.9960938 L154.292153,78.9960938 L154.292153,79.8867188 L151.4152,79.8867188 Z M155.276328,79.8867188 L155.276328,78.9960938 L158.153281,78.9960938 L158.153281,79.8867188 L155.276328,79.8867188 Z M159.137456,79.8867188 L159.137456,78.9960938 L162.014409,78.9960938 L162.014409,79.8867188 L159.137456,79.8867188 Z M162.998584,79.8867188 L162.998584,78.9960938 L165.875537,78.9960938 L165.875537,79.8867188 L162.998584,79.8867188 Z M166.859712,79.8867188 L166.859712,78.9960938 L169.736666,78.9960938 L169.736666,79.8867188 L166.859712,79.8867188 Z M170.720841,79.8867188 L170.720841,78.9960938 L173.597794,78.9960938 L173.597794,79.8867188 L170.720841,79.8867188 Z M174.581969,79.8867188 L174.581969,78.9960938 L177.458922,78.9960938 L177.458922,79.8867188 L174.581969,79.8867188 Z M178.443097,79.8867188 L178.443097,78.9960938 L181.32005,78.9960938 L181.32005,79.8867188 L178.443097,79.8867188 Z M182.304225,79.8867188 L182.304225,78.9960938 L185.181178,78.9960938 L185.181178,79.8867188 L182.304225,79.8867188 Z M186.165353,79.8867188 L186.165353,78.9960938 L189.042306,78.9960938 L189.042306,79.8867188 L186.165353,79.8867188 Z M190.026481,79.8867188 L190.026481,78.9960938 L192.903434,78.9960938 L192.903434,79.8867188 L190.026481,79.8867188 Z M193.887609,79.8867188 L193.887609,78.9960938 L196.764563,78.9960938 L196.764563,79.8867188 L193.887609,79.8867188 Z M197.748737,79.8867188 L197.748737,78.9960938 L200.625691,78.9960938 L200.625691,79.8867188 L197.748737,79.8867188 Z M201.609866,79.8867188 L201.609866,78.9960938 L204.486819,78.9960938 L204.486819,79.8867188 L201.609866,79.8867188 Z M205.470994,79.8867188 L205.470994,78.9960938 L208.347947,78.9960938 L208.347947,79.8867188 L205.470994,79.8867188 Z M209.332122,79.8867188 L209.332122,78.9960938 L212.209075,78.9960938 L212.209075,79.8867188 L209.332122,79.8867188 Z M213.19325,79.8867188 L213.19325,78.9960938 L216.070203,78.9960938 L216.070203,79.8867188 L213.19325,79.8867188 Z M217.054378,79.8867188 L217.054378,78.9960938 L219.931331,78.9960938 L219.931331,79.8867188 L217.054378,79.8867188 Z" id="-----------------------" fill="#292E31"/>
        <path d="M225,83.5664062 L225,75 L225.996094,75 L225.996094,82.6640625 L229.775391,82.6640625 L229.775391,83.5664062 L225,83.5664062 Z M236.625,80.3496094 C236.625,81.3964896 236.361331,82.2138642 235.833984,82.8017578 C235.306638,83.3896514 234.57813,83.6835938 233.648438,83.6835938 C233.074216,83.6835938 232.564455,83.5488295 232.119141,83.2792969 C231.673826,83.0097643 231.330079,82.6230494 231.087891,82.1191406 C230.845702,81.6152319 230.724609,81.025394 230.724609,80.3496094 C230.724609,79.3027291 230.986326,78.4873076 231.509766,77.9033203 C232.033206,77.319333 232.759761,77.0273438 233.689453,77.0273438 C234.587895,77.0273438 235.301755,77.3261689 235.831055,77.9238281 C236.360354,78.5214874 236.625,79.330073 236.625,80.3496094 Z M231.732422,80.3496094 C231.732422,81.169926 231.896483,81.7949197 232.224609,82.2246094 C232.552736,82.654299 233.035153,82.8691406 233.671875,82.8691406 C234.308597,82.8691406 234.791991,82.6552756 235.12207,82.2275391 C235.45215,81.7998025 235.617188,81.1738322 235.617188,80.3496094 C235.617188,79.533199 235.45215,78.9130881 235.12207,78.4892578 C234.791991,78.0654276 234.304691,77.8535156 233.660156,77.8535156 C233.023434,77.8535156 232.54297,78.0624979 232.21875,78.4804688 C231.89453,78.8984396 231.732422,79.5214802 231.732422,80.3496094 Z M243.333984,83.5664062 L242.15625,79.7988281 C242.082031,79.5683582 241.94336,79.044926 241.740234,78.2285156 L241.693359,78.2285156 C241.537109,78.9121128 241.400391,79.4394513 241.283203,79.8105469 L240.070312,83.5664062 L238.945312,83.5664062 L237.193359,77.1445312 L238.212891,77.1445312 C238.626955,78.7578206 238.942382,79.9863239 239.15918,80.8300781 C239.375978,81.6738323 239.5,82.242186 239.53125,82.5351562 L239.578125,82.5351562 C239.621094,82.3124989 239.690429,82.0244158 239.786133,81.6708984 C239.881836,81.317381 239.964843,81.0371104 240.035156,80.8300781 L241.212891,77.1445312 L242.267578,77.1445312 L243.416016,80.8300781 C243.634767,81.5019565 243.783203,82.066404 243.861328,82.5234375 L243.908203,82.5234375 C243.923828,82.3828118 243.96582,82.1660171 244.03418,81.8730469 C244.102539,81.5800767 244.509762,80.0039205 245.255859,77.1445312 L246.263672,77.1445312 L244.488281,83.5664062 L243.333984,83.5664062 Z" id="Low" fill="#292E31"/>
      </g>
    </g>
  </g>
</svg>